<?xml version="1.0" encoding="UTF-8"?><svg xmlns="http://www.w3.org/2000/svg" xmlns:xlink="http://www.w3.org/1999/xlink" fill-opacity="1" color-rendering="auto" color-interpolation="auto" text-rendering="auto" stroke="black" stroke-linecap="square" width="610" stroke-miterlimit="10" shape-rendering="auto" stroke-opacity="1" fill="black" stroke-dasharray="none" font-weight="normal" stroke-width="1" height="381" font-family="'Dialog'" font-style="normal" stroke-linejoin="miter" font-size="12px" stroke-dashoffset="0" image-rendering="auto">
  <!--Generated by ySVG 2.5-->
  <defs id="genericDefs"/>
  <g>
    <defs id="defs1">
      <clipPath clipPathUnits="userSpaceOnUse" id="clipPath1">
        <path d="M0 0 L610 0 L610 381 L0 381 L0 0 Z"/>
      </clipPath>
      <clipPath clipPathUnits="userSpaceOnUse" id="clipPath2">
        <path d="M112 225 L722 225 L722 606 L112 606 L112 225 Z"/>
      </clipPath>
    </defs>
    <g fill="white" text-rendering="geometricPrecision" shape-rendering="geometricPrecision" transform="translate(-112,-225)" stroke="white">
      <rect x="112" width="610" height="381" y="225" clip-path="url(#clipPath2)" stroke="none"/>
    </g>
    <g text-rendering="geometricPrecision" stroke-miterlimit="1.45" shape-rendering="geometricPrecision" transform="matrix(1,0,0,1,-112,-225)" stroke-linecap="butt">
      <rect fill="none" x="454" width="253" height="156" y="240" clip-path="url(#clipPath2)"/>
      <text x="460" font-size="16px" y="386.625" clip-path="url(#clipPath2)" font-family="sans-serif" stroke="none" font-weight="bold" xml:space="preserve">Node</text>
    </g>
    <g fill="rgb(153,204,255)" text-rendering="geometricPrecision" shape-rendering="geometricPrecision" transform="matrix(1,0,0,1,-112,-225)" stroke="rgb(153,204,255)">
      <rect x="127" width="168" height="94" y="369" clip-path="url(#clipPath2)" stroke="none"/>
    </g>
    <g text-rendering="geometricPrecision" stroke-miterlimit="1.45" shape-rendering="geometricPrecision" transform="matrix(1,0,0,1,-112,-225)" stroke-linecap="butt">
      <rect fill="none" x="127" width="168" height="94" y="369" clip-path="url(#clipPath2)"/>
      <text x="161.3516" font-size="16px" y="422.0469" clip-path="url(#clipPath2)" font-family="sans-serif" stroke="none" font-weight="bold" xml:space="preserve">Deployment</text>
    </g>
    <g fill="rgb(153,204,255)" text-rendering="geometricPrecision" shape-rendering="geometricPrecision" transform="matrix(1,0,0,1,-112,-225)" stroke="rgb(153,204,255)">
      <rect x="496.5" width="168" height="94" y="260" clip-path="url(#clipPath2)" stroke="none"/>
    </g>
    <g text-rendering="geometricPrecision" stroke-miterlimit="1.45" shape-rendering="geometricPrecision" transform="matrix(1,0,0,1,-112,-225)" stroke-linecap="butt">
      <rect fill="none" x="496.5" width="168" height="94" y="260" clip-path="url(#clipPath2)"/>
      <text x="565.1836" font-size="16px" y="313.0469" clip-path="url(#clipPath2)" font-family="sans-serif" stroke="none" font-weight="bold" xml:space="preserve">Pod</text>
      <rect fill="none" x="454" width="253" height="156" y="435" clip-path="url(#clipPath2)"/>
      <text x="460" font-size="16px" y="581.625" clip-path="url(#clipPath2)" font-family="sans-serif" stroke="none" font-weight="bold" xml:space="preserve">Node</text>
    </g>
    <g fill="rgb(153,204,255)" text-rendering="geometricPrecision" shape-rendering="geometricPrecision" transform="matrix(1,0,0,1,-112,-225)" stroke="rgb(153,204,255)">
      <rect x="496.5" width="168" height="94" y="458" clip-path="url(#clipPath2)" stroke="none"/>
    </g>
    <g text-rendering="geometricPrecision" stroke-miterlimit="1.45" shape-rendering="geometricPrecision" transform="matrix(1,0,0,1,-112,-225)" stroke-linecap="butt">
      <rect fill="none" x="496.5" width="168" height="94" y="458" clip-path="url(#clipPath2)"/>
      <text x="565.1836" font-size="16px" y="511.0469" clip-path="url(#clipPath2)" font-family="sans-serif" stroke="none" font-weight="bold" xml:space="preserve">Pod</text>
    </g>
    <g fill="rgb(153,204,255)" text-rendering="geometricPrecision" shape-rendering="geometricPrecision" transform="matrix(1,0,0,1,-112,-225)" stroke="rgb(153,204,255)">
      <rect x="139" width="168" height="94" y="377" clip-path="url(#clipPath2)" stroke="none"/>
    </g>
    <g text-rendering="geometricPrecision" stroke-miterlimit="1.45" shape-rendering="geometricPrecision" transform="matrix(1,0,0,1,-112,-225)" stroke-linecap="butt">
      <rect fill="none" x="139" width="168" height="94" y="377" clip-path="url(#clipPath2)"/>
      <text x="189.3359" font-size="16px" y="430.0469" clip-path="url(#clipPath2)" font-family="sans-serif" stroke="none" font-weight="bold" xml:space="preserve">services</text>
      <text x="141.3555" font-size="16px" y="497.4688" clip-path="url(#clipPath2)" font-family="sans-serif" stroke="none" font-weight="bold" xml:space="preserve">Fixed virtual address</text>
      <text x="162.2695" font-size="16px" y="516.3125" clip-path="url(#clipPath2)" font-family="sans-serif" stroke="none" font-weight="bold" xml:space="preserve">Fixed DNS entry</text>
      <path fill="none" d="M307.0333 456.0954 L488.6249 488.5698" clip-path="url(#clipPath2)"/>
      <path d="M496.5 489.9781 L485.5676 482.9437 L487.6405 488.3938 L483.8072 492.7876 Z" clip-path="url(#clipPath2)" stroke="none"/>
      <path fill="none" d="M307 424 L489.1447 346.0807" clip-path="url(#clipPath2)"/>
      <path d="M496.5 342.9342 L483.5006 343.0569 L488.2253 346.474 L487.4337 352.2509 Z" clip-path="url(#clipPath2)" stroke="none"/>
    </g>
  </g>
</svg>
