<?xml version="1.0" encoding="UTF-8"?><svg xmlns="http://www.w3.org/2000/svg" xmlns:xlink="http://www.w3.org/1999/xlink" fill-opacity="1" color-rendering="auto" color-interpolation="auto" text-rendering="auto" stroke="black" stroke-linecap="square" width="381" stroke-miterlimit="10" shape-rendering="auto" stroke-opacity="1" fill="black" stroke-dasharray="none" font-weight="normal" stroke-width="1" height="398" font-family="'Dialog'" font-style="normal" stroke-linejoin="miter" font-size="12px" stroke-dashoffset="0" image-rendering="auto">
  <!--Generated by ySVG 2.5-->
  <defs id="genericDefs"/>
  <g>
    <defs id="defs1">
      <clipPath clipPathUnits="userSpaceOnUse" id="clipPath1">
        <path d="M0 0 L381 0 L381 398 L0 398 L0 0 Z"/>
      </clipPath>
      <clipPath clipPathUnits="userSpaceOnUse" id="clipPath2">
        <path d="M341 208 L722 208 L722 606 L341 606 L341 208 Z"/>
      </clipPath>
    </defs>
    <g fill="white" text-rendering="geometricPrecision" shape-rendering="geometricPrecision" transform="translate(-341,-208)" stroke="white">
      <rect x="341" width="381" height="398" y="208" clip-path="url(#clipPath2)" stroke="none"/>
    </g>
    <g text-rendering="geometricPrecision" stroke-miterlimit="1.45" shape-rendering="geometricPrecision" transform="matrix(1,0,0,1,-341,-208)" stroke-linecap="butt">
      <rect fill="none" x="454" width="253" height="368" y="223" clip-path="url(#clipPath2)"/>
      <text x="460" font-size="16px" y="581.625" clip-path="url(#clipPath2)" font-family="sans-serif" stroke="none" font-weight="bold" xml:space="preserve">Pod</text>
    </g>
    <g fill="rgb(153,204,255)" text-rendering="geometricPrecision" shape-rendering="geometricPrecision" transform="matrix(1,0,0,1,-341,-208)" stroke="rgb(153,204,255)">
      <rect x="490.5" width="168" height="94" y="240" clip-path="url(#clipPath2)" stroke="none"/>
    </g>
    <g text-rendering="geometricPrecision" stroke-miterlimit="1.45" shape-rendering="geometricPrecision" transform="matrix(1,0,0,1,-341,-208)" stroke-linecap="butt">
      <rect fill="none" x="490.5" width="168" height="94" y="240" clip-path="url(#clipPath2)"/>
      <text x="551.3867" font-size="16px" y="293.0469" clip-path="url(#clipPath2)" font-family="sans-serif" stroke="none" font-weight="bold" xml:space="preserve">nginx</text>
    </g>
    <g fill="rgb(153,204,255)" text-rendering="geometricPrecision" shape-rendering="geometricPrecision" transform="matrix(1,0,0,1,-341,-208)" stroke="rgb(153,204,255)">
      <rect x="490.5" width="168" height="94" y="360" clip-path="url(#clipPath2)" stroke="none"/>
    </g>
    <g text-rendering="geometricPrecision" stroke-miterlimit="1.45" shape-rendering="geometricPrecision" transform="matrix(1,0,0,1,-341,-208)" stroke-linecap="butt">
      <rect fill="none" x="490.5" width="168" height="94" y="360" clip-path="url(#clipPath2)"/>
      <text x="538.2734" font-size="16px" y="413.0469" clip-path="url(#clipPath2)" font-family="sans-serif" stroke="none" font-weight="bold" xml:space="preserve">WebFiles</text>
      <text x="463.9746" xml:space="preserve" y="507.4023" clip-path="url(#clipPath2)" font-family="sans-serif" stroke="none">ENV:</text>
      <text x="463.9746" xml:space="preserve" y="521.5352" clip-path="url(#clipPath2)" font-family="sans-serif" stroke="none">  HOSTNAME=0.0.0.0</text>
      <text x="463.9746" xml:space="preserve" y="535.668" clip-path="url(#clipPath2)" font-family="sans-serif" stroke="none">  LISTENPORT=8080</text>
      <circle fill="none" r="15" clip-path="url(#clipPath2)" cx="371.5" cy="292"/>
      <path fill="none" d="M386.5 292 L453.9749 292" clip-path="url(#clipPath2)"/>
    </g>
  </g>
</svg>
