<?xml version="1.0" encoding="UTF-8"?><svg xmlns="http://www.w3.org/2000/svg" xmlns:xlink="http://www.w3.org/1999/xlink" fill-opacity="1" color-rendering="auto" color-interpolation="auto" text-rendering="auto" stroke="black" stroke-linecap="square" width="771" stroke-miterlimit="10" shape-rendering="auto" stroke-opacity="1" fill="black" stroke-dasharray="none" font-weight="normal" stroke-width="1" height="398" font-family="'Dialog'" font-style="normal" stroke-linejoin="miter" font-size="12px" stroke-dashoffset="0" image-rendering="auto">
  <!--Generated by ySVG 2.5-->
  <defs id="genericDefs"/>
  <g>
    <defs id="defs1">
      <clipPath clipPathUnits="userSpaceOnUse" id="clipPath1">
        <path d="M0 0 L771 0 L771 398 L0 398 L0 0 Z"/>
      </clipPath>
      <clipPath clipPathUnits="userSpaceOnUse" id="clipPath2">
        <path d="M29 258 L800 258 L800 656 L29 656 L29 258 Z"/>
      </clipPath>
    </defs>
    <g fill="white" text-rendering="geometricPrecision" shape-rendering="geometricPrecision" transform="translate(-29,-258)" stroke="white">
      <rect x="29" width="771" height="398" y="258" clip-path="url(#clipPath2)" stroke="none"/>
    </g>
    <g text-rendering="geometricPrecision" stroke-miterlimit="1.45" shape-rendering="geometricPrecision" transform="matrix(1,0,0,1,-29,-258)" stroke-linecap="butt">
      <rect fill="none" x="532" width="253" height="368" y="273" clip-path="url(#clipPath2)"/>
      <text x="538" font-size="16px" y="631.625" clip-path="url(#clipPath2)" font-family="sans-serif" stroke="none" font-weight="bold" xml:space="preserve">Pod</text>
    </g>
    <g fill="rgb(153,204,255)" text-rendering="geometricPrecision" shape-rendering="geometricPrecision" transform="matrix(1,0,0,1,-29,-258)" stroke="rgb(153,204,255)">
      <rect x="568.5" width="168" height="94" y="290" clip-path="url(#clipPath2)" stroke="none"/>
    </g>
    <g text-rendering="geometricPrecision" stroke-miterlimit="1.45" shape-rendering="geometricPrecision" transform="matrix(1,0,0,1,-29,-258)" stroke-linecap="butt">
      <rect fill="none" x="568.5" width="168" height="94" y="290" clip-path="url(#clipPath2)"/>
      <text x="603.8359" font-size="16px" y="343.0469" clip-path="url(#clipPath2)" font-family="sans-serif" stroke="none" font-weight="bold" xml:space="preserve">memcached</text>
    </g>
    <g fill="rgb(153,204,255)" text-rendering="geometricPrecision" shape-rendering="geometricPrecision" transform="matrix(1,0,0,1,-29,-258)" stroke="rgb(153,204,255)">
      <rect x="568.5" width="168" height="94" y="410" clip-path="url(#clipPath2)" stroke="none"/>
    </g>
    <g text-rendering="geometricPrecision" stroke-miterlimit="1.45" shape-rendering="geometricPrecision" transform="matrix(1,0,0,1,-29,-258)" stroke-linecap="butt">
      <rect fill="none" x="568.5" width="168" height="94" y="410" clip-path="url(#clipPath2)"/>
      <text x="603.0469" font-size="16px" y="453.625" clip-path="url(#clipPath2)" font-family="sans-serif" stroke="none" font-weight="bold" xml:space="preserve">prometheus</text>
      <text x="617.4727" font-size="16px" y="472.4688" clip-path="url(#clipPath2)" font-family="sans-serif" stroke="none" font-weight="bold" xml:space="preserve">exporter</text>
      <rect fill="none" x="140" width="253" height="368" y="273" clip-path="url(#clipPath2)"/>
      <text x="146" font-size="16px" y="631.625" clip-path="url(#clipPath2)" font-family="sans-serif" stroke="none" font-weight="bold" xml:space="preserve">Pod</text>
    </g>
    <g fill="rgb(153,204,255)" text-rendering="geometricPrecision" shape-rendering="geometricPrecision" transform="matrix(1,0,0,1,-29,-258)" stroke="rgb(153,204,255)">
      <rect x="176.5" width="168" height="94" y="290" clip-path="url(#clipPath2)" stroke="none"/>
    </g>
    <g text-rendering="geometricPrecision" stroke-miterlimit="1.45" shape-rendering="geometricPrecision" transform="matrix(1,0,0,1,-29,-258)" stroke-linecap="butt">
      <rect fill="none" x="176.5" width="168" height="94" y="290" clip-path="url(#clipPath2)"/>
      <text x="245.1953" font-size="16px" y="343.0469" clip-path="url(#clipPath2)" font-family="sans-serif" stroke="none" font-weight="bold" xml:space="preserve">app</text>
    </g>
    <g fill="rgb(153,204,255)" text-rendering="geometricPrecision" shape-rendering="geometricPrecision" transform="matrix(1,0,0,1,-29,-258)" stroke="rgb(153,204,255)">
      <rect x="176.5" width="168" height="94" y="410" clip-path="url(#clipPath2)" stroke="none"/>
    </g>
    <g text-rendering="geometricPrecision" stroke-miterlimit="1.45" shape-rendering="geometricPrecision" transform="matrix(1,0,0,1,-29,-258)" stroke-linecap="butt">
      <rect fill="none" x="176.5" width="168" height="94" y="410" clip-path="url(#clipPath2)"/>
      <text x="212.5273" font-size="16px" y="463.0469" clip-path="url(#clipPath2)" font-family="sans-serif" stroke="none" font-weight="bold" xml:space="preserve">swagger-ui</text>
      <circle fill="none" r="20" clip-path="url(#clipPath2)" cx="64" cy="412"/>
      <text x="48.8242" xml:space="preserve" y="416.5352" clip-path="url(#clipPath2)" font-family="sans-serif" stroke="none">8080</text>
      <circle fill="none" r="20" clip-path="url(#clipPath2)" cx="64" cy="337"/>
      <text x="56.4121" xml:space="preserve" y="341.5352" clip-path="url(#clipPath2)" font-family="sans-serif" stroke="none">80</text>
      <circle fill="none" r="20" clip-path="url(#clipPath2)" cx="476.5" cy="412"/>
      <text x="461.3242" xml:space="preserve" y="416.5352" clip-path="url(#clipPath2)" font-family="sans-serif" stroke="none">9150</text>
      <circle fill="none" r="20" clip-path="url(#clipPath2)" cx="476.5" cy="337"/>
      <text x="457.5303" xml:space="preserve" y="341.5352" clip-path="url(#clipPath2)" font-family="sans-serif" stroke="none">11211</text>
      <path fill="none" d="M652.5 410 L652.5 392" clip-path="url(#clipPath2)"/>
      <path d="M652.5 384 L647.5 396 L652.5 393 L657.5 396 Z" clip-path="url(#clipPath2)" stroke="none"/>
      <path fill="none" d="M260.5 410 L260.5 392" clip-path="url(#clipPath2)"/>
      <path d="M260.5 384 L255.5 396 L260.5 393 L265.5 396 Z" clip-path="url(#clipPath2)" stroke="none"/>
      <path fill="none" d="M84 412 L151 412 L151 457 L176.5 457" clip-path="url(#clipPath2)"/>
      <path fill="none" d="M84 337 L176.5 337" clip-path="url(#clipPath2)"/>
      <path fill="none" d="M496.5 412 L542 412 L542 457 L568.5 457" clip-path="url(#clipPath2)"/>
      <path fill="none" d="M496.5 337 L568.5 337" clip-path="url(#clipPath2)"/>
    </g>
  </g>
</svg>
