<?xml version="1.0" encoding="UTF-8"?><svg xmlns="http://www.w3.org/2000/svg" xmlns:xlink="http://www.w3.org/1999/xlink" fill-opacity="1" color-rendering="auto" color-interpolation="auto" text-rendering="auto" stroke="black" stroke-linecap="square" width="495" stroke-miterlimit="10" shape-rendering="auto" stroke-opacity="1" fill="black" stroke-dasharray="none" font-weight="normal" stroke-width="1" height="301" font-family="'Dialog'" font-style="normal" stroke-linejoin="miter" font-size="12px" stroke-dashoffset="0" image-rendering="auto">
  <!--Generated by ySVG 2.5-->
  <defs id="genericDefs"/>
  <g>
    <defs id="defs1">
      <clipPath clipPathUnits="userSpaceOnUse" id="clipPath1">
        <path d="M0 0 L495 0 L495 301 L0 301 L0 0 Z"/>
      </clipPath>
      <clipPath clipPathUnits="userSpaceOnUse" id="clipPath2">
        <path d="M216 168 L711 168 L711 469 L216 469 L216 168 Z"/>
      </clipPath>
    </defs>
    <g fill="white" text-rendering="geometricPrecision" shape-rendering="geometricPrecision" transform="translate(-216,-168)" stroke="white">
      <rect x="216" width="495" height="301" y="168" clip-path="url(#clipPath2)" stroke="none"/>
    </g>
    <g text-rendering="geometricPrecision" stroke-miterlimit="1.45" shape-rendering="geometricPrecision" transform="matrix(1,0,0,1,-216,-168)" stroke-linecap="butt">
      <rect fill="none" x="435" width="106" height="30" y="183" clip-path="url(#clipPath2)"/>
      <text x="461.4609" font-size="14px" y="203.291" clip-path="url(#clipPath2)" font-family="sans-serif" stroke="none" font-weight="bold" xml:space="preserve">Service</text>
    </g>
    <g fill="red" text-rendering="geometricPrecision" shape-rendering="geometricPrecision" transform="matrix(1,0,0,1,-216,-168)" stroke="red">
      <rect x="405" width="30" height="48" y="311" clip-path="url(#clipPath2)" stroke="none"/>
    </g>
    <g text-rendering="geometricPrecision" stroke-miterlimit="1.45" shape-rendering="geometricPrecision" transform="matrix(1,0,0,1,-216,-168)" stroke-linecap="butt">
      <rect fill="none" x="405" width="30" height="48" y="311" clip-path="url(#clipPath2)"/>
    </g>
    <g fill="red" text-rendering="geometricPrecision" shape-rendering="geometricPrecision" transform="matrix(1,0,0,1,-216,-168)" stroke="red">
      <rect x="472" width="30" height="48" y="311" clip-path="url(#clipPath2)" stroke="none"/>
    </g>
    <g text-rendering="geometricPrecision" stroke-miterlimit="1.45" shape-rendering="geometricPrecision" transform="matrix(1,0,0,1,-216,-168)" stroke-linecap="butt">
      <rect fill="none" x="472" width="30" height="48" y="311" clip-path="url(#clipPath2)"/>
    </g>
    <g fill="rgb(51,153,102)" text-rendering="geometricPrecision" shape-rendering="geometricPrecision" transform="matrix(1,0,0,1,-216,-168)" stroke="rgb(51,153,102)">
      <rect x="539" width="30" height="48" y="311" clip-path="url(#clipPath2)" stroke="none"/>
    </g>
    <g text-rendering="geometricPrecision" stroke-miterlimit="1.45" shape-rendering="geometricPrecision" transform="matrix(1,0,0,1,-216,-168)" stroke-linecap="butt">
      <rect fill="none" x="539" width="30" height="48" y="311" clip-path="url(#clipPath2)"/>
      <text x="587.6401" font-size="14px" y="331.291" clip-path="url(#clipPath2)" font-family="sans-serif" stroke="none" font-weight="bold" xml:space="preserve">Pods</text>
      <text x="556.3398" font-size="14px" y="280.5352" clip-path="url(#clipPath2)" font-family="sans-serif" stroke="none" font-weight="bold" xml:space="preserve">Labels</text>
    </g>
    <g fill="red" text-rendering="geometricPrecision" shape-rendering="geometricPrecision" transform="matrix(1,0,0,1,-216,-168)" stroke="red">
      <rect x="232" width="90" height="48" y="406" clip-path="url(#clipPath2)" stroke="none"/>
    </g>
    <g text-rendering="geometricPrecision" stroke-miterlimit="1.45" shape-rendering="geometricPrecision" transform="matrix(1,0,0,1,-216,-168)" stroke-linecap="butt">
      <rect fill="none" x="232" width="90" height="48" y="406" clip-path="url(#clipPath2)"/>
      <text x="233.5576" font-size="14px" y="435.291" clip-path="url(#clipPath2)" font-family="sans-serif" stroke="none" font-weight="bold" xml:space="preserve">Deployment</text>
    </g>
    <g fill="rgb(51,153,102)" text-rendering="geometricPrecision" shape-rendering="geometricPrecision" transform="matrix(1,0,0,1,-216,-168)" stroke="rgb(51,153,102)">
      <rect x="605" width="90" height="48" y="400" clip-path="url(#clipPath2)" stroke="none"/>
    </g>
    <g text-rendering="geometricPrecision" stroke-miterlimit="1.45" shape-rendering="geometricPrecision" transform="matrix(1,0,0,1,-216,-168)" stroke-linecap="butt">
      <rect fill="none" x="605" width="90" height="48" y="400" clip-path="url(#clipPath2)"/>
      <text x="606.5576" font-size="14px" y="429.291" clip-path="url(#clipPath2)" font-family="sans-serif" stroke="none" font-weight="bold" xml:space="preserve">Deployment</text>
    </g>
    <g fill="white" text-rendering="geometricPrecision" shape-rendering="geometricPrecision" transform="matrix(1,0,0,1,-216,-168)" stroke="white">
      <rect x="327" width="30" height="30" y="367" clip-path="url(#clipPath2)" stroke="none"/>
    </g>
    <g font-size="14px" stroke-linecap="butt" transform="matrix(1,0,0,1,-216,-168)" text-rendering="geometricPrecision" font-family="sans-serif" shape-rendering="geometricPrecision" font-weight="bold" stroke-miterlimit="1.45">
      <text x="287.832" xml:space="preserve" y="387.291" clip-path="url(#clipPath2)" stroke="none">&lt;&lt; Creates &gt;&gt;</text>
    </g>
    <g fill="white" text-rendering="geometricPrecision" shape-rendering="geometricPrecision" transform="matrix(1,0,0,1,-216,-168)" stroke="white">
      <rect x="599" width="30" height="30" y="355.5" clip-path="url(#clipPath2)" stroke="none"/>
    </g>
    <g font-size="14px" stroke-linecap="butt" transform="matrix(1,0,0,1,-216,-168)" text-rendering="geometricPrecision" font-family="sans-serif" shape-rendering="geometricPrecision" font-weight="bold" stroke-miterlimit="1.45">
      <text x="559.832" xml:space="preserve" y="375.791" clip-path="url(#clipPath2)" stroke="none">&lt;&lt; Creates &gt;&gt;</text>
      <path fill="none" d="M480.5547 213 L435.4692 303.8341" clip-path="url(#clipPath2)"/>
      <path d="M431.9124 311 L441.7262 302.4742 L435.9138 302.9384 L432.7689 298.0283 Z" stroke="none" clip-path="url(#clipPath2)"/>
      <path fill="none" d="M487.8636 213 L487 308 L487 311" clip-path="url(#clipPath2)"/>
      <path d="M487 311 L492 299 L487 302 L482 299 Z" stroke="none" clip-path="url(#clipPath2)"/>
      <path fill="none" d="M495.2263 213 L538.9658 303.7928" clip-path="url(#clipPath2)"/>
      <path d="M542.4379 311 L541.7343 298.019 L538.5318 302.8918 L532.7252 302.3592 Z" stroke="none" clip-path="url(#clipPath2)"/>
    </g>
    <g stroke-linecap="butt" transform="matrix(1,0,0,1,-216,-168)" text-rendering="geometricPrecision" shape-rendering="geometricPrecision" stroke-dasharray="12,4" stroke-width="2" stroke-miterlimit="1.45">
      <path fill="none" d="M283.3838 406.0162 L284.4844 402.4844 L289.3398 390.4023 L294.9375 379.4375 L301.2773 369.5898 L308.3594 360.8594 L316.1836 353.2461 L324.75 346.75 L334.0586 341.3711 L344.1094 337.1094 L354.9023 333.9648 L366.4375 331.9375 L378.7148 331.0273 L391.7344 331.2344 L396.0268 331.6474" clip-path="url(#clipPath2)"/>
      <path d="M404.9854 332.5095 L392.0863 325.6172 L394.907 331.5396 L391.0087 336.8155 Z" clip-path="url(#clipPath2)" stroke="none"/>
      <path fill="none" d="M322.0028 440.8062 L329.8357 441.9426 L346.067 442.8717 L361.608 442.2749 L376.4587 440.1521 L390.6191 436.5035 L404.0893 431.3289 L416.8691 424.6285 L428.9587 416.4021 L440.358 406.6499 L451.067 395.3717 L461.0857 382.5676 L470.4141 368.2377 L471.153 366.8813" clip-path="url(#clipPath2)"/>
      <path d="M475.4586 358.9781 L464.0606 368.142 L470.6147 367.8693 L473.9397 373.524 Z" clip-path="url(#clipPath2)" stroke="none"/>
      <path fill="none" d="M604.9852 417.9773 L593.1406 413.125 L586.0977 408.6875 L579.75 403.5 L574.0977 397.5625 L569.1406 390.875 L561.3125 375.25 L559.2603 367.6762" clip-path="url(#clipPath2)"/>
      <path d="M556.9064 358.9895 L555.008 373.4908 L559.5545 368.7621 L565.8664 370.5484 Z" clip-path="url(#clipPath2)" stroke="none"/>
    </g>
  </g>
</svg>
