<?xml version="1.0" encoding="UTF-8"?><svg xmlns="http://www.w3.org/2000/svg" xmlns:xlink="http://www.w3.org/1999/xlink" fill-opacity="1" color-rendering="auto" color-interpolation="auto" text-rendering="auto" stroke="black" stroke-linecap="square" width="716" stroke-miterlimit="10" shape-rendering="auto" stroke-opacity="1" fill="black" stroke-dasharray="none" font-weight="normal" stroke-width="1" height="405" font-family="'Dialog'" font-style="normal" stroke-linejoin="miter" font-size="12px" stroke-dashoffset="0" image-rendering="auto">
  <!--Generated by ySVG 2.5-->
  <defs id="genericDefs"/>
  <g>
    <defs id="defs1">
      <clipPath clipPathUnits="userSpaceOnUse" id="clipPath1">
        <path d="M0 0 L716 0 L716 405 L0 405 L0 0 Z"/>
      </clipPath>
      <clipPath clipPathUnits="userSpaceOnUse" id="clipPath2">
        <path d="M69 201 L785 201 L785 606 L69 606 L69 201 Z"/>
      </clipPath>
    </defs>
    <g fill="white" text-rendering="geometricPrecision" shape-rendering="geometricPrecision" transform="translate(-69,-201)" stroke="white">
      <rect x="69" width="716" height="405" y="201" clip-path="url(#clipPath2)" stroke="none"/>
    </g>
    <g text-rendering="geometricPrecision" stroke-miterlimit="1.45" shape-rendering="geometricPrecision" transform="matrix(1,0,0,1,-69,-201)" stroke-linecap="butt">
      <rect fill="none" x="454" width="253" height="156" y="240" clip-path="url(#clipPath2)"/>
      <text x="460" font-size="16px" y="386.625" clip-path="url(#clipPath2)" font-family="sans-serif" stroke="none" font-weight="bold" xml:space="preserve">Node</text>
      <rect fill="none" x="84.5" width="253" height="156" y="346" clip-path="url(#clipPath2)"/>
      <text x="90.5" font-size="16px" y="492.625" clip-path="url(#clipPath2)" font-family="sans-serif" stroke="none" font-weight="bold" xml:space="preserve">Master</text>
    </g>
    <g fill="rgb(153,204,255)" text-rendering="geometricPrecision" shape-rendering="geometricPrecision" transform="matrix(1,0,0,1,-69,-201)" stroke="rgb(153,204,255)">
      <rect x="127" width="168" height="94" y="369" clip-path="url(#clipPath2)" stroke="none"/>
    </g>
    <g text-rendering="geometricPrecision" stroke-miterlimit="1.45" shape-rendering="geometricPrecision" transform="matrix(1,0,0,1,-69,-201)" stroke-linecap="butt">
      <rect fill="none" x="127" width="168" height="94" y="369" clip-path="url(#clipPath2)"/>
      <text x="161.3516" font-size="16px" y="422.0469" clip-path="url(#clipPath2)" font-family="sans-serif" stroke="none" font-weight="bold" xml:space="preserve">Deployment</text>
    </g>
    <g fill="rgb(153,204,255)" text-rendering="geometricPrecision" shape-rendering="geometricPrecision" transform="matrix(1,0,0,1,-69,-201)" stroke="rgb(153,204,255)">
      <rect x="496.5" width="168" height="94" y="260" clip-path="url(#clipPath2)" stroke="none"/>
    </g>
    <g text-rendering="geometricPrecision" stroke-miterlimit="1.45" shape-rendering="geometricPrecision" transform="matrix(1,0,0,1,-69,-201)" stroke-linecap="butt">
      <rect fill="none" x="496.5" width="168" height="94" y="260" clip-path="url(#clipPath2)"/>
      <text x="505.4961" font-size="16px" y="313.0469" clip-path="url(#clipPath2)" font-family="sans-serif" stroke="none" font-weight="bold" xml:space="preserve">Docker containers</text>
      <rect fill="none" x="454" width="253" height="156" y="435" clip-path="url(#clipPath2)"/>
      <text x="460" font-size="16px" y="581.625" clip-path="url(#clipPath2)" font-family="sans-serif" stroke="none" font-weight="bold" xml:space="preserve">Node</text>
    </g>
    <g fill="rgb(153,204,255)" text-rendering="geometricPrecision" shape-rendering="geometricPrecision" transform="matrix(1,0,0,1,-69,-201)" stroke="rgb(153,204,255)">
      <rect x="496.5" width="168" height="94" y="458" clip-path="url(#clipPath2)" stroke="none"/>
    </g>
    <g text-rendering="geometricPrecision" stroke-miterlimit="1.45" shape-rendering="geometricPrecision" transform="matrix(1,0,0,1,-69,-201)" stroke-linecap="butt">
      <rect fill="none" x="496.5" width="168" height="94" y="458" clip-path="url(#clipPath2)"/>
      <text x="504.0547" font-size="16px" y="511.0469" clip-path="url(#clipPath2)" font-family="sans-serif" stroke="none" font-weight="bold" xml:space="preserve">Docker Containers</text>
      <text x="736.6836" font-size="16px" y="237.0469" clip-path="url(#clipPath2)" font-family="sans-serif" stroke="none" font-weight="bold" xml:space="preserve">Pod</text>
      <text x="366.0534" font-size="16px" y="345.0469" clip-path="url(#clipPath2)" font-family="sans-serif" stroke="none" font-weight="bold" xml:space="preserve">Schedule</text>
      <text x="359.1367" font-size="16px" y="447.0469" clip-path="url(#clipPath2)" font-family="sans-serif" stroke="none" font-weight="bold" xml:space="preserve">Schedule</text>
      <path fill="none" d="M295 391.2206 L488.8269 334.0429" clip-path="url(#clipPath2)"/>
      <path d="M496.5 331.7794 L483.5757 330.379 L487.8678 334.3259 L486.4051 339.9704 Z" clip-path="url(#clipPath2)" stroke="none"/>
      <path fill="none" d="M295 436.2328 L488.7224 482.8939" clip-path="url(#clipPath2)"/>
      <path d="M496.5 484.7672 L486.0045 477.0962 L487.7502 482.6597 L483.6628 486.8182 Z" clip-path="url(#clipPath2)" stroke="none"/>
      <path fill="none" stroke-dasharray="6,2" d="M742.6113 246 L609.9179 458" clip-path="url(#clipPath2)"/>
      <path fill="none" stroke-dasharray="6,2" d="M737 237.6472 L664.5 269.7755" clip-path="url(#clipPath2)"/>
    </g>
  </g>
</svg>
