<?xml version="1.0" encoding="UTF-8"?><svg xmlns="http://www.w3.org/2000/svg" xmlns:xlink="http://www.w3.org/1999/xlink" fill-opacity="1" color-rendering="auto" color-interpolation="auto" text-rendering="auto" stroke="black" stroke-linecap="square" width="1046" stroke-miterlimit="10" shape-rendering="auto" stroke-opacity="1" fill="black" stroke-dasharray="none" font-weight="normal" stroke-width="1" height="820" font-family="'Dialog'" font-style="normal" stroke-linejoin="miter" font-size="12px" stroke-dashoffset="0" image-rendering="auto">
  <!--Generated by ySVG 2.5-->
  <defs id="genericDefs"/>
  <g>
    <defs id="defs1">
      <clipPath clipPathUnits="userSpaceOnUse" id="clipPath1">
        <path d="M0 0 L1046 0 L1046 820 L0 820 L0 0 Z"/>
      </clipPath>
      <clipPath clipPathUnits="userSpaceOnUse" id="clipPath2">
        <path d="M33 12 L1079 12 L1079 832 L33 832 L33 12 Z"/>
      </clipPath>
      <clipPath clipPathUnits="userSpaceOnUse" id="clipPath3">
        <path d="M-374.7247 5.985 L671.2753 5.985 L671.2753 825.985 L-374.7247 825.985 L-374.7247 5.985 Z"/>
      </clipPath>
      <clipPath clipPathUnits="userSpaceOnUse" id="clipPath4">
        <path d="M-385.9973 -12.015 L660.0027 -12.015 L660.0027 807.985 L-385.9973 807.985 L-385.9973 -12.015 Z"/>
      </clipPath>
      <clipPath clipPathUnits="userSpaceOnUse" id="clipPath5">
        <path d="M-394.9973 -29.015 L651.0027 -29.015 L651.0027 790.985 L-394.9973 790.985 L-394.9973 -29.015 Z"/>
      </clipPath>
    </defs>
    <g fill="white" text-rendering="geometricPrecision" shape-rendering="geometricPrecision" transform="translate(-33,-12)" stroke="white">
      <rect x="33" width="1046" height="820" y="12" clip-path="url(#clipPath2)" stroke="none"/>
    </g>
    <g fill="rgb(153,204,255)" text-rendering="geometricPrecision" shape-rendering="geometricPrecision" transform="matrix(1,0,0,1,-33,-12)" stroke="rgb(153,204,255)">
      <rect x="48" width="167" height="129" y="413" clip-path="url(#clipPath2)" stroke="none"/>
    </g>
    <g text-rendering="geometricPrecision" stroke-miterlimit="1.45" shape-rendering="geometricPrecision" transform="matrix(1,0,0,1,-33,-12)" stroke-linecap="butt">
      <rect fill="none" x="48" width="167" height="129" y="413" clip-path="url(#clipPath2)"/>
      <text x="100.5742" font-size="16px" y="464.7031" clip-path="url(#clipPath2)" font-family="sans-serif" stroke="none" font-weight="bold" xml:space="preserve">Staging</text>
      <text x="115.9727" font-size="16px" y="483.5469" clip-path="url(#clipPath2)" font-family="sans-serif" stroke="none" font-weight="bold" xml:space="preserve">K8S</text>
      <text x="126.2227" font-size="16px" y="502.3906" clip-path="url(#clipPath2)" font-family="sans-serif" stroke="none" font-weight="bold" xml:space="preserve">6</text>
    </g>
    <g fill="rgb(153,204,255)" text-rendering="geometricPrecision" shape-rendering="geometricPrecision" transform="matrix(1,0,0,1,-33,-12)" stroke="rgb(153,204,255)">
      <rect x="294" width="167" height="129" y="418" clip-path="url(#clipPath2)" stroke="none"/>
    </g>
    <g text-rendering="geometricPrecision" stroke-miterlimit="1.45" shape-rendering="geometricPrecision" transform="matrix(1,0,0,1,-33,-12)" stroke-linecap="butt">
      <rect fill="none" x="294" width="167" height="129" y="418" clip-path="url(#clipPath2)"/>
      <text x="332.8281" font-size="16px" y="469.7031" clip-path="url(#clipPath2)" font-family="sans-serif" stroke="none" font-weight="bold" xml:space="preserve">Production</text>
      <text x="361.9727" font-size="16px" y="488.5469" clip-path="url(#clipPath2)" font-family="sans-serif" stroke="none" font-weight="bold" xml:space="preserve">K8S</text>
      <text x="366.9453" font-size="16px" y="507.3906" clip-path="url(#clipPath2)" font-family="sans-serif" stroke="none" font-weight="bold" xml:space="preserve">10</text>
    </g>
    <g fill="rgb(153,204,255)" text-rendering="geometricPrecision" shape-rendering="geometricPrecision" transform="matrix(1,0,0,1,-33,-12)" stroke="rgb(153,204,255)">
      <rect x="48" width="167" height="30" y="341" clip-path="url(#clipPath2)" stroke="none"/>
    </g>
    <g text-rendering="geometricPrecision" stroke-miterlimit="1.45" shape-rendering="geometricPrecision" transform="matrix(1,0,0,1,-33,-12)" stroke-linecap="butt">
      <rect fill="none" x="48" width="167" height="30" y="341" clip-path="url(#clipPath2)"/>
      <text x="90.4219" font-size="16px" y="362.0469" clip-path="url(#clipPath2)" font-family="sans-serif" stroke="none" font-weight="bold" xml:space="preserve">Google LB</text>
    </g>
    <g fill="rgb(153,204,255)" text-rendering="geometricPrecision" shape-rendering="geometricPrecision" transform="matrix(1,0,0,1,-33,-12)" stroke="rgb(153,204,255)">
      <rect x="294" width="167" height="30" y="341" clip-path="url(#clipPath2)" stroke="none"/>
    </g>
    <g text-rendering="geometricPrecision" stroke-miterlimit="1.45" shape-rendering="geometricPrecision" transform="matrix(1,0,0,1,-33,-12)" stroke-linecap="butt">
      <rect fill="none" x="294" width="167" height="30" y="341" clip-path="url(#clipPath2)"/>
      <text x="336.4219" font-size="16px" y="362.0469" clip-path="url(#clipPath2)" font-family="sans-serif" stroke="none" font-weight="bold" xml:space="preserve">Google LB</text>
    </g>
    <g fill="rgb(153,204,255)" text-rendering="geometricPrecision" shape-rendering="geometricPrecision" transform="matrix(1,0,0,1,-33,-12)" stroke="rgb(153,204,255)">
      <circle r="15" clip-path="url(#clipPath2)" cx="131.5" cy="296" stroke="none"/>
    </g>
    <g text-rendering="geometricPrecision" stroke-miterlimit="1.45" shape-rendering="geometricPrecision" transform="matrix(1,0,0,1,-33,-12)" stroke-linecap="butt">
      <circle fill="none" r="15" clip-path="url(#clipPath2)" cx="131.5" cy="296"/>
    </g>
    <g fill="rgb(153,204,255)" text-rendering="geometricPrecision" shape-rendering="geometricPrecision" transform="matrix(1,0,0,1,-33,-12)" stroke="rgb(153,204,255)">
      <circle r="15" clip-path="url(#clipPath2)" cx="377.5" cy="296" stroke="none"/>
    </g>
    <g text-rendering="geometricPrecision" stroke-miterlimit="1.45" shape-rendering="geometricPrecision" transform="matrix(1,0,0,1,-33,-12)" stroke-linecap="butt">
      <circle fill="none" r="15" clip-path="url(#clipPath2)" cx="377.5" cy="296"/>
    </g>
    <g fill="rgb(153,204,255)" text-rendering="geometricPrecision" shape-rendering="geometricPrecision" transform="matrix(1,0,0,1,-33,-12)" stroke="rgb(153,204,255)">
      <rect x="557.3333" width="143" height="124" y="418" clip-path="url(#clipPath2)" stroke="none"/>
    </g>
    <g text-rendering="geometricPrecision" stroke-miterlimit="1.45" shape-rendering="geometricPrecision" transform="matrix(1,0,0,1,-33,-12)" stroke-linecap="butt">
      <rect fill="none" x="557.3333" width="143" height="124" y="418" clip-path="url(#clipPath2)"/>
    </g>
    <g stroke-linecap="butt" font-size="16px" transform="matrix(1,0,0,1,-33,-12)" fill="red" text-rendering="geometricPrecision" font-family="sans-serif" shape-rendering="geometricPrecision" stroke="red" font-weight="bold" stroke-miterlimit="1.45">
      <text x="612.1458" xml:space="preserve" y="476.625" clip-path="url(#clipPath2)" stroke="none">Live</text>
      <text x="611.9153" xml:space="preserve" y="495.4688" clip-path="url(#clipPath2)" stroke="none">30+</text>
    </g>
    <g fill="rgb(153,204,255)" text-rendering="geometricPrecision" shape-rendering="geometricPrecision" transform="matrix(1,0,0,1,-33,-12)" stroke="rgb(153,204,255)">
      <rect x="739" width="143" height="124" y="418" clip-path="url(#clipPath2)" stroke="none"/>
    </g>
    <g text-rendering="geometricPrecision" stroke-miterlimit="1.45" shape-rendering="geometricPrecision" transform="matrix(1,0,0,1,-33,-12)" stroke-linecap="butt">
      <rect fill="none" x="739" width="143" height="124" y="418" clip-path="url(#clipPath2)"/>
    </g>
    <g stroke-linecap="butt" font-size="16px" transform="matrix(1,0,0,1,-33,-12)" fill="red" text-rendering="geometricPrecision" font-family="sans-serif" shape-rendering="geometricPrecision" stroke="red" font-weight="bold" stroke-miterlimit="1.45">
      <text x="779.5742" xml:space="preserve" y="476.625" clip-path="url(#clipPath2)" stroke="none">Staging</text>
      <text x="793.582" xml:space="preserve" y="495.4688" clip-path="url(#clipPath2)" stroke="none">10+</text>
    </g>
    <g fill="rgb(153,204,255)" text-rendering="geometricPrecision" shape-rendering="geometricPrecision" transform="matrix(1,0,0,1,-33,-12)" stroke="rgb(153,204,255)">
      <rect x="48" width="413" height="39" y="639" clip-path="url(#clipPath2)" stroke="none"/>
    </g>
    <g text-rendering="geometricPrecision" stroke-miterlimit="1.45" shape-rendering="geometricPrecision" transform="matrix(1,0,0,1,-33,-12)" stroke-linecap="butt">
      <rect fill="none" x="48" width="413" height="39" y="639" clip-path="url(#clipPath2)"/>
      <text x="225.75" font-size="16px" y="664.5469" clip-path="url(#clipPath2)" font-family="sans-serif" stroke="none" font-weight="bold" xml:space="preserve">Google</text>
    </g>
    <g fill="rgb(153,204,255)" text-rendering="geometricPrecision" shape-rendering="geometricPrecision" transform="matrix(1,0,0,1,-33,-12)" stroke="rgb(153,204,255)">
      <rect x="557.3333" width="506.3333" height="39" y="639" clip-path="url(#clipPath2)" stroke="none"/>
    </g>
    <g text-rendering="geometricPrecision" stroke-miterlimit="1.45" shape-rendering="geometricPrecision" transform="matrix(1,0,0,1,-33,-12)" stroke-linecap="butt">
      <rect fill="none" x="557.3333" width="506.3333" height="39" y="639" clip-path="url(#clipPath2)"/>
      <text x="563.3333" font-size="16px" y="664.5469" clip-path="url(#clipPath2)" font-family="sans-serif" stroke="none" font-weight="bold" xml:space="preserve">AWS</text>
    </g>
    <g fill="rgb(153,204,255)" text-rendering="geometricPrecision" shape-rendering="geometricPrecision" transform="matrix(1,0,0,1,-33,-12)" stroke="rgb(153,204,255)">
      <rect x="920.6667" width="143" height="201" y="341" clip-path="url(#clipPath2)" stroke="none"/>
    </g>
    <g text-rendering="geometricPrecision" stroke-miterlimit="1.45" shape-rendering="geometricPrecision" transform="matrix(1,0,0,1,-33,-12)" stroke-linecap="butt">
      <rect fill="none" x="920.6667" width="143" height="201" y="341" clip-path="url(#clipPath2)"/>
      <text x="947.6432" font-size="16px" y="438.125" clip-path="url(#clipPath2)" font-family="sans-serif" stroke="none" font-weight="bold" xml:space="preserve">Cloudfront</text>
      <text x="934.1003" font-size="16px" y="456.9688" clip-path="url(#clipPath2)" font-family="sans-serif" stroke="none" font-weight="bold" xml:space="preserve">(Live/Staging)</text>
      <text x="404.1914" font-size="16px" y="302.0469" clip-path="url(#clipPath2)" font-family="sans-serif" stroke="none" font-weight="bold" xml:space="preserve">api.x</text>
      <text x="156.7031" font-size="16px" y="302.0469" clip-path="url(#clipPath2)" font-family="sans-serif" stroke="none" font-weight="bold" xml:space="preserve">staging-api.x</text>
    </g>
    <g fill="rgb(153,204,255)" text-rendering="geometricPrecision" shape-rendering="geometricPrecision" transform="matrix(1,0,0,1,-33,-12)" stroke="rgb(153,204,255)">
      <rect x="557.3333" width="143" height="30" y="341" clip-path="url(#clipPath2)" stroke="none"/>
    </g>
    <g text-rendering="geometricPrecision" stroke-miterlimit="1.45" shape-rendering="geometricPrecision" transform="matrix(1,0,0,1,-33,-12)" stroke-linecap="butt">
      <rect fill="none" x="557.3333" width="143" height="30" y="341" clip-path="url(#clipPath2)"/>
      <text x="587.7552" font-size="16px" y="362.0469" clip-path="url(#clipPath2)" font-family="sans-serif" stroke="none" font-weight="bold" xml:space="preserve">Google LB</text>
    </g>
    <g fill="rgb(153,204,255)" text-rendering="geometricPrecision" shape-rendering="geometricPrecision" transform="matrix(1,0,0,1,-33,-12)" stroke="rgb(153,204,255)">
      <rect x="566" width="143" height="30" y="346" clip-path="url(#clipPath2)" stroke="none"/>
    </g>
    <g text-rendering="geometricPrecision" stroke-miterlimit="1.45" shape-rendering="geometricPrecision" transform="matrix(1,0,0,1,-33,-12)" stroke-linecap="butt">
      <rect fill="none" x="566" width="143" height="30" y="346" clip-path="url(#clipPath2)"/>
      <text x="596.4219" font-size="16px" y="367.0469" clip-path="url(#clipPath2)" font-family="sans-serif" stroke="none" font-weight="bold" xml:space="preserve">Google LB</text>
    </g>
    <g fill="rgb(153,204,255)" text-rendering="geometricPrecision" shape-rendering="geometricPrecision" transform="matrix(1,0,0,1,-33,-12)" stroke="rgb(153,204,255)">
      <rect x="574" width="143" height="30" y="353" clip-path="url(#clipPath2)" stroke="none"/>
    </g>
    <g text-rendering="geometricPrecision" stroke-miterlimit="1.45" shape-rendering="geometricPrecision" transform="matrix(1,0,0,1,-33,-12)" stroke-linecap="butt">
      <rect fill="none" x="574" width="143" height="30" y="353" clip-path="url(#clipPath2)"/>
    </g>
    <g stroke-linecap="butt" font-size="16px" transform="matrix(1,0,0,1,-33,-12)" fill="red" text-rendering="geometricPrecision" font-family="sans-serif" shape-rendering="geometricPrecision" stroke="red" font-weight="bold" stroke-miterlimit="1.45">
      <text x="631.0039" xml:space="preserve" y="374.0469" clip-path="url(#clipPath2)" stroke="none">ELB</text>
    </g>
    <g fill="rgb(153,204,255)" text-rendering="geometricPrecision" shape-rendering="geometricPrecision" transform="matrix(1,0,0,1,-33,-12)" stroke="rgb(153,204,255)">
      <rect x="722.3333" width="143" height="30" y="341" clip-path="url(#clipPath2)" stroke="none"/>
    </g>
    <g text-rendering="geometricPrecision" stroke-miterlimit="1.45" shape-rendering="geometricPrecision" transform="matrix(1,0,0,1,-33,-12)" stroke-linecap="butt">
      <rect fill="none" x="722.3333" width="143" height="30" y="341" clip-path="url(#clipPath2)"/>
      <text x="752.7552" font-size="16px" y="362.0469" clip-path="url(#clipPath2)" font-family="sans-serif" stroke="none" font-weight="bold" xml:space="preserve">Google LB</text>
    </g>
    <g fill="rgb(153,204,255)" text-rendering="geometricPrecision" shape-rendering="geometricPrecision" transform="matrix(1,0,0,1,-33,-12)" stroke="rgb(153,204,255)">
      <rect x="731" width="143" height="30" y="346" clip-path="url(#clipPath2)" stroke="none"/>
    </g>
    <g text-rendering="geometricPrecision" stroke-miterlimit="1.45" shape-rendering="geometricPrecision" transform="matrix(1,0,0,1,-33,-12)" stroke-linecap="butt">
      <rect fill="none" x="731" width="143" height="30" y="346" clip-path="url(#clipPath2)"/>
      <text x="761.4219" font-size="16px" y="367.0469" clip-path="url(#clipPath2)" font-family="sans-serif" stroke="none" font-weight="bold" xml:space="preserve">Google LB</text>
    </g>
    <g fill="rgb(153,204,255)" text-rendering="geometricPrecision" shape-rendering="geometricPrecision" transform="matrix(1,0,0,1,-33,-12)" stroke="rgb(153,204,255)">
      <rect x="739" width="143" height="30" y="353" clip-path="url(#clipPath2)" stroke="none"/>
    </g>
    <g text-rendering="geometricPrecision" stroke-miterlimit="1.45" shape-rendering="geometricPrecision" transform="matrix(1,0,0,1,-33,-12)" stroke-linecap="butt">
      <rect fill="none" x="739" width="143" height="30" y="353" clip-path="url(#clipPath2)"/>
    </g>
    <g stroke-linecap="butt" font-size="16px" transform="matrix(1,0,0,1,-33,-12)" fill="red" text-rendering="geometricPrecision" font-family="sans-serif" shape-rendering="geometricPrecision" stroke="red" font-weight="bold" stroke-miterlimit="1.45">
      <text x="796.0039" xml:space="preserve" y="374.0469" clip-path="url(#clipPath2)" stroke="none">ELB</text>
    </g>
    <g fill="rgb(153,204,255)" text-rendering="geometricPrecision" shape-rendering="geometricPrecision" transform="matrix(1,0,0,1,-33,-12)" stroke="rgb(153,204,255)">
      <circle r="15" clip-path="url(#clipPath2)" cx="645.5" cy="296" stroke="none"/>
    </g>
    <g text-rendering="geometricPrecision" stroke-miterlimit="1.45" shape-rendering="geometricPrecision" transform="matrix(1,0,0,1,-33,-12)" stroke-linecap="butt">
      <circle fill="none" r="15" clip-path="url(#clipPath2)" cx="645.5" cy="296"/>
    </g>
    <g fill="rgb(153,204,255)" text-rendering="geometricPrecision" shape-rendering="geometricPrecision" transform="matrix(1,0,0,1,-33,-12)" stroke="rgb(153,204,255)">
      <circle r="15" clip-path="url(#clipPath2)" cx="810.5" cy="296" stroke="none"/>
    </g>
    <g text-rendering="geometricPrecision" stroke-miterlimit="1.45" shape-rendering="geometricPrecision" transform="matrix(1,0,0,1,-33,-12)" stroke-linecap="butt">
      <circle fill="none" r="15" clip-path="url(#clipPath2)" cx="810.5" cy="296"/>
      <text x="444.3555" font-size="16px" y="808.0469" clip-path="url(#clipPath2)" font-family="sans-serif" stroke="none" font-weight="bold" xml:space="preserve">VPN</text>
      <text x="489.3555" font-size="16px" y="503.0469" clip-path="url(#clipPath2)" font-family="sans-serif" stroke="none" font-weight="bold" xml:space="preserve">VPN</text>
    </g>
    <g text-rendering="geometricPrecision" shape-rendering="geometricPrecision" transform="matrix(1,0,0,1,374.7247,-5.985)">
      <g clip-path="url(#clipPath3)">
        <svg opacity="1" writing-mode="lr-tb" stop-color="rgb(0, 0, 0)" shape-rendering="auto" glyph-orientation-horizontal="0deg" color-profile="auto" lighting-color="rgb(255, 255, 255)" color="rgb(0, 0, 0)" font-weight="400" alignment-baseline="auto" font-style="normal" color-interpolation-filters="linearrgb" text-anchor="start" stroke-linecap="butt" color-interpolation="srgb" font-variant="normal" word-spacing="normal" fill-opacity="1" text-rendering="auto" clip-path="none" text-decoration="none" letter-spacing="normal" viewBox="0 0 100 100" glyph-orientation-vertical="auto" display="inline" font-size-adjust="none" data-name="Layer 1" fill="rgb(0, 0, 0)" overflow="visible" font-stretch="normal" stroke-dasharray="none" id="svg1.Layer_1" stroke-miterlimit="4" stop-opacity="1" color-rendering="auto" font-size="12" mask="none" direction="ltr" baseline-shift="baseline" pointer-events="visiblepainted" enable-background="accumulate" fill-rule="nonzero" image-rendering="auto" stroke-dashoffset="0" width="100" marker-end="none" clip="auto" cursor="auto" stroke="none" filter="none" visibility="visible" kerning="auto" stroke-width="1" font-family="&quot;Arial&quot;,&quot;Helvetica&quot;,sans-serif" flood-opacity="1" clip-rule="nonzero" src="none" height="100" unicode-bidi="normal" stroke-linejoin="miter" stroke-opacity="1" flood-color="rgb(0, 0, 0)" dominant-baseline="auto" marker-start="none" marker-mid="none">
  <title>General</title>
  <path fill="#7d7c7c" d="M58,24.34a3.12,3.12,0,0,1,3.13,3.11L68.27,75a3.12,3.12,0,0,1-3.13,3.11H34.86A3.13,3.13,0,0,1,31.73,75l8.89-47.54a3.13,3.13,0,0,1,3.13-3.11Z"/>
  <path fill="#d2d3d3" d="M65.14,21.86A3.12,3.12,0,0,1,68.27,25V72.5a3.12,3.12,0,0,1-3.13,3.11H34.86a3.13,3.13,0,0,1-3.13-3.11V25a3.13,3.13,0,0,1,3.13-3.11Z"/>
  <path fill="#fff" d="M40.87,25.31H59.08a2,2,0,1,1,0,4.06H40.87a2,2,0,1,1,0-4.06ZM50,74.2a3.54,3.54,0,1,1,3.56-3.55A3.55,3.55,0,0,1,50,74.2ZM64.71,62.86a2,2,0,0,1-2.09,1.86H37.32a2,2,0,0,1-2.09-1.86V34.58a2,2,0,0,1,2.09-1.86h25.3a2,2,0,0,1,2.09,1.86Z"/>
</svg>
      </g>
    </g>
    <g text-rendering="geometricPrecision" shape-rendering="geometricPrecision" transform="matrix(1,0,0,1,385.9973,12.015)">
      <g clip-path="url(#clipPath4)">
        <svg opacity="1" writing-mode="lr-tb" stop-color="rgb(0, 0, 0)" shape-rendering="auto" glyph-orientation-horizontal="0deg" color-profile="auto" lighting-color="rgb(255, 255, 255)" color="rgb(0, 0, 0)" font-weight="400" alignment-baseline="auto" font-style="normal" color-interpolation-filters="linearrgb" text-anchor="start" stroke-linecap="butt" color-interpolation="srgb" font-variant="normal" word-spacing="normal" fill-opacity="1" text-rendering="auto" clip-path="none" text-decoration="none" letter-spacing="normal" viewBox="0 0 100 100" glyph-orientation-vertical="auto" display="inline" font-size-adjust="none" data-name="Layer 1" fill="rgb(0, 0, 0)" overflow="visible" font-stretch="normal" stroke-dasharray="none" id="svg2.Layer_1" stroke-miterlimit="4" stop-opacity="1" color-rendering="auto" font-size="12" mask="none" direction="ltr" baseline-shift="baseline" pointer-events="visiblepainted" enable-background="accumulate" fill-rule="nonzero" image-rendering="auto" stroke-dashoffset="0" width="100" marker-end="none" clip="auto" cursor="auto" stroke="none" filter="none" visibility="visible" kerning="auto" stroke-width="1" font-family="&quot;Arial&quot;,&quot;Helvetica&quot;,sans-serif" flood-opacity="1" clip-rule="nonzero" src="none" height="100" unicode-bidi="normal" stroke-linejoin="miter" stroke-opacity="1" flood-color="rgb(0, 0, 0)" dominant-baseline="auto" marker-start="none" marker-mid="none">
  <title>General</title>
  <path fill="#7d7c7c" d="M58,24.34a3.12,3.12,0,0,1,3.13,3.11L68.27,75a3.12,3.12,0,0,1-3.13,3.11H34.86A3.13,3.13,0,0,1,31.73,75l8.89-47.54a3.13,3.13,0,0,1,3.13-3.11Z"/>
  <path fill="#d2d3d3" d="M65.14,21.86A3.12,3.12,0,0,1,68.27,25V72.5a3.12,3.12,0,0,1-3.13,3.11H34.86a3.13,3.13,0,0,1-3.13-3.11V25a3.13,3.13,0,0,1,3.13-3.11Z"/>
  <path fill="#fff" d="M40.87,25.31H59.08a2,2,0,1,1,0,4.06H40.87a2,2,0,1,1,0-4.06ZM50,74.2a3.54,3.54,0,1,1,3.56-3.55A3.55,3.55,0,0,1,50,74.2ZM64.71,62.86a2,2,0,0,1-2.09,1.86H37.32a2,2,0,0,1-2.09-1.86V34.58a2,2,0,0,1,2.09-1.86h25.3a2,2,0,0,1,2.09,1.86Z"/>
</svg>
      </g>
    </g>
    <g text-rendering="geometricPrecision" shape-rendering="geometricPrecision" transform="matrix(1,0,0,1,394.9973,29.015)">
      <g clip-path="url(#clipPath5)">
        <svg opacity="1" writing-mode="lr-tb" stop-color="rgb(0, 0, 0)" shape-rendering="auto" glyph-orientation-horizontal="0deg" color-profile="auto" lighting-color="rgb(255, 255, 255)" color="rgb(0, 0, 0)" font-weight="400" alignment-baseline="auto" font-style="normal" color-interpolation-filters="linearrgb" text-anchor="start" stroke-linecap="butt" color-interpolation="srgb" font-variant="normal" word-spacing="normal" fill-opacity="1" text-rendering="auto" clip-path="none" text-decoration="none" letter-spacing="normal" viewBox="0 0 100 100" glyph-orientation-vertical="auto" display="inline" font-size-adjust="none" data-name="Layer 1" fill="rgb(0, 0, 0)" overflow="visible" font-stretch="normal" stroke-dasharray="none" id="svg3.Layer_1" stroke-miterlimit="4" stop-opacity="1" color-rendering="auto" font-size="12" mask="none" direction="ltr" baseline-shift="baseline" pointer-events="visiblepainted" enable-background="accumulate" fill-rule="nonzero" image-rendering="auto" stroke-dashoffset="0" width="100" marker-end="none" clip="auto" cursor="auto" stroke="none" filter="none" visibility="visible" kerning="auto" stroke-width="1" font-family="&quot;Arial&quot;,&quot;Helvetica&quot;,sans-serif" flood-opacity="1" clip-rule="nonzero" src="none" height="100" unicode-bidi="normal" stroke-linejoin="miter" stroke-opacity="1" flood-color="rgb(0, 0, 0)" dominant-baseline="auto" marker-start="none" marker-mid="none">
  <title>General</title>
  <path fill="#7d7c7c" d="M58,24.34a3.12,3.12,0,0,1,3.13,3.11L68.27,75a3.12,3.12,0,0,1-3.13,3.11H34.86A3.13,3.13,0,0,1,31.73,75l8.89-47.54a3.13,3.13,0,0,1,3.13-3.11Z"/>
  <path fill="#d2d3d3" d="M65.14,21.86A3.12,3.12,0,0,1,68.27,25V72.5a3.12,3.12,0,0,1-3.13,3.11H34.86a3.13,3.13,0,0,1-3.13-3.11V25a3.13,3.13,0,0,1,3.13-3.11Z"/>
  <path fill="#fff" d="M40.87,25.31H59.08a2,2,0,1,1,0,4.06H40.87a2,2,0,1,1,0-4.06ZM50,74.2a3.54,3.54,0,1,1,3.56-3.55A3.55,3.55,0,0,1,50,74.2ZM64.71,62.86a2,2,0,0,1-2.09,1.86H37.32a2,2,0,0,1-2.09-1.86V34.58a2,2,0,0,1,2.09-1.86h25.3a2,2,0,0,1,2.09,1.86Z"/>
</svg>
      </g>
    </g>
    <g stroke-linecap="butt" font-size="16px" transform="matrix(1,0,0,1,-33,-12)" fill="red" text-rendering="geometricPrecision" font-family="sans-serif" shape-rendering="geometricPrecision" stroke="red" font-weight="bold" stroke-miterlimit="1.45">
      <text x="573.2812" xml:space="preserve" y="302.0469" clip-path="url(#clipPath2)" stroke="none">lyke.x</text>
      <text x="830.1263" xml:space="preserve" y="302.4688" clip-path="url(#clipPath2)" stroke="none">staging-lyke.x</text>
    </g>
    <g fill="rgb(153,204,255)" text-rendering="geometricPrecision" shape-rendering="geometricPrecision" transform="matrix(1,0,0,1,-33,-12)" stroke="rgb(153,204,255)">
      <rect x="181.5" width="106" height="56.2553" y="573.5" clip-path="url(#clipPath2)" stroke="none"/>
    </g>
    <g text-rendering="geometricPrecision" stroke-miterlimit="1.45" shape-rendering="geometricPrecision" transform="matrix(1,0,0,1,-33,-12)" stroke-linecap="butt">
      <rect fill="none" x="181.5" width="106" height="56.2553" y="573.5" clip-path="url(#clipPath2)"/>
      <text x="185.4414" font-size="16px" y="598.2527" clip-path="url(#clipPath2)" font-family="sans-serif" stroke="none" font-weight="bold" xml:space="preserve">Prometheus</text>
      <text x="203.7617" font-size="16px" y="617.0964" clip-path="url(#clipPath2)" font-family="sans-serif" stroke="none" font-weight="bold" xml:space="preserve">EFK - 2</text>
    </g>
    <g fill="rgb(153,204,255)" text-rendering="geometricPrecision" shape-rendering="geometricPrecision" transform="matrix(1,0,0,1,-33,-12)" stroke="rgb(153,204,255)">
      <rect x="311.75" width="131.5" height="56.2553" y="573.5" clip-path="url(#clipPath2)" stroke="none"/>
    </g>
    <g stroke-linecap="butt" transform="matrix(1,0,0,1,-33,-12)" text-rendering="geometricPrecision" shape-rendering="geometricPrecision" stroke-dasharray="12,4" stroke-width="2" stroke-miterlimit="1.45">
      <rect fill="none" x="311.75" width="131.5" height="56.2553" y="573.5" clip-path="url(#clipPath2)"/>
    </g>
    <g font-size="16px" stroke-linecap="butt" transform="matrix(1,0,0,1,-33,-12)" text-rendering="geometricPrecision" font-family="sans-serif" shape-rendering="geometricPrecision" font-weight="bold" stroke-miterlimit="1.45">
      <text x="323.6562" xml:space="preserve" y="598.2527" clip-path="url(#clipPath2)" stroke="none">ElasticSearch</text>
      <text x="344.7109" xml:space="preserve" y="617.0964" clip-path="url(#clipPath2)" stroke="none">4 nodes</text>
    </g>
    <g fill="rgb(153,204,255)" text-rendering="geometricPrecision" shape-rendering="geometricPrecision" transform="matrix(1,0,0,1,-33,-12)" stroke="rgb(153,204,255)">
      <rect x="920.6667" width="143" height="56.2553" y="558" clip-path="url(#clipPath2)" stroke="none"/>
    </g>
    <g text-rendering="geometricPrecision" stroke-miterlimit="1.45" shape-rendering="geometricPrecision" transform="matrix(1,0,0,1,-33,-12)" stroke-linecap="butt">
      <rect fill="none" x="920.6667" width="143" height="56.2553" y="558" clip-path="url(#clipPath2)"/>
      <text x="955.2253" font-size="16px" y="592.1746" clip-path="url(#clipPath2)" font-family="sans-serif" stroke="none" font-weight="bold" xml:space="preserve">Lambdas</text>
      <path fill="none" d="M131.5 371 L131.5 413" clip-path="url(#clipPath2)"/>
      <path fill="none" d="M377.5 371 L377.5 418" clip-path="url(#clipPath2)"/>
      <path fill="none" d="M131.5 311 L131.5 341" clip-path="url(#clipPath2)"/>
      <path fill="none" d="M377.5 311 L377.5 341" clip-path="url(#clipPath2)"/>
      <path fill="none" d="M461 481.6694 L557.3333 480.7112" clip-path="url(#clipPath2)"/>
      <path fill="none" d="M461.0189 514.4158 L557.3047 514.4158" clip-path="url(#clipPath2)"/>
      <path fill="none" d="M145.6059 542.0181 L143 792 L796 792 L796 542.0227" clip-path="url(#clipPath2)"/>
      <path fill="none" d="M810.5 542 L810.5 812 L131.5 812 L131.5 542" clip-path="url(#clipPath2)"/>
      <path fill="none" d="M645.5 311 L645.5 353" clip-path="url(#clipPath2)"/>
      <path fill="none" d="M810.5 311 L810.5 353" clip-path="url(#clipPath2)"/>
      <path fill="none" d="M478 119.1606 L478 168 L377.5 168 L377.5 281" clip-path="url(#clipPath2)"/>
      <path fill="none" d="M478 119.1606 L478 168 L645.5 168 L645.5 281" clip-path="url(#clipPath2)"/>
      <path fill="none" d="M185.0215 542 L211.1599 573.5" clip-path="url(#clipPath2)"/>
      <path fill="none" d="M300.0747 547 L268.2643 573.5" clip-path="url(#clipPath2)"/>
      <path fill="none" d="M377.5 547 L377.5 573.5" clip-path="url(#clipPath2)"/>
    </g>
  </g>
</svg>
