<?xml version="1.0" encoding="UTF-8"?><svg xmlns="http://www.w3.org/2000/svg" xmlns:xlink="http://www.w3.org/1999/xlink" fill-opacity="1" color-rendering="auto" color-interpolation="auto" text-rendering="auto" stroke="black" stroke-linecap="square" width="669" stroke-miterlimit="10" shape-rendering="auto" stroke-opacity="1" fill="black" stroke-dasharray="none" font-weight="normal" stroke-width="1" height="458" font-family="'Dialog'" font-style="normal" stroke-linejoin="miter" font-size="12px" stroke-dashoffset="0" image-rendering="auto">
  <!--Generated by ySVG 2.5-->
  <defs id="genericDefs"/>
  <g>
    <g fill="white" text-rendering="geometricPrecision" shape-rendering="geometricPrecision" transform="translate(-19,-154)" stroke="white">
      <rect x="19" width="669" height="458" y="154" clip-path="url(#clipPath2)" stroke="none"/>
    </g>
    <g fill="white" text-rendering="geometricPrecision" shape-rendering="geometricPrecision" transform="matrix(1,0,0,1,-19,-154)" stroke="white">
      <rect x="536" width="137" height="212" y="297" clip-path="url(#clipPath2)" stroke="none"/>
    </g>
    <g text-rendering="geometricPrecision" stroke-miterlimit="1.45" shape-rendering="geometricPrecision" transform="matrix(1,0,0,1,-19,-154)" stroke-linecap="butt">
      <rect fill="none" x="536" width="137" height="212" y="297" clip-path="url(#clipPath2)"/>
      <text x="563.416" font-size="14px" y="483.5586" clip-path="url(#clipPath2)" font-family="sans-serif" stroke="none" font-weight="bold" xml:space="preserve">Kubernetes</text>
      <text x="578.8071" font-size="14px" y="500.0469" clip-path="url(#clipPath2)" font-family="sans-serif" stroke="none" font-weight="bold" xml:space="preserve">Worker</text>
    </g>
    <g fill="white" text-rendering="geometricPrecision" shape-rendering="geometricPrecision" transform="matrix(1,0,0,1,-19,-154)" stroke="white">
      <rect x="369" width="137" height="212" y="297" clip-path="url(#clipPath2)" stroke="none"/>
    </g>
    <g text-rendering="geometricPrecision" stroke-miterlimit="1.45" shape-rendering="geometricPrecision" transform="matrix(1,0,0,1,-19,-154)" stroke-linecap="butt">
      <rect fill="none" x="369" width="137" height="212" y="297" clip-path="url(#clipPath2)"/>
      <text x="396.416" font-size="14px" y="483.5586" clip-path="url(#clipPath2)" font-family="sans-serif" stroke="none" font-weight="bold" xml:space="preserve">Kubernetes</text>
      <text x="411.8071" font-size="14px" y="500.0469" clip-path="url(#clipPath2)" font-family="sans-serif" stroke="none" font-weight="bold" xml:space="preserve">Worker</text>
    </g>
    <g fill="white" text-rendering="geometricPrecision" shape-rendering="geometricPrecision" transform="matrix(1,0,0,1,-19,-154)" stroke="white">
      <rect x="202" width="137" height="212" y="297" clip-path="url(#clipPath2)" stroke="none"/>
    </g>
    <g text-rendering="geometricPrecision" stroke-miterlimit="1.45" shape-rendering="geometricPrecision" transform="matrix(1,0,0,1,-19,-154)" stroke-linecap="butt">
      <rect fill="none" x="202" width="137" height="212" y="297" clip-path="url(#clipPath2)"/>
      <text x="229.416" font-size="14px" y="483.5586" clip-path="url(#clipPath2)" font-family="sans-serif" stroke="none" font-weight="bold" xml:space="preserve">Kubernetes</text>
      <text x="244.8071" font-size="14px" y="500.0469" clip-path="url(#clipPath2)" font-family="sans-serif" stroke="none" font-weight="bold" xml:space="preserve">Worker</text>
    </g>
    <g fill="white" text-rendering="geometricPrecision" shape-rendering="geometricPrecision" transform="matrix(1,0,0,1,-19,-154)" stroke="white">
      <rect x="202" width="137" height="73" y="524" clip-path="url(#clipPath2)" stroke="none"/>
    </g>
    <g text-rendering="geometricPrecision" stroke-miterlimit="1.45" shape-rendering="geometricPrecision" transform="matrix(1,0,0,1,-19,-154)" stroke-linecap="butt">
      <rect fill="none" x="202" width="137" height="73" y="524" clip-path="url(#clipPath2)"/>
      <text x="251.9097" font-size="14px" y="565.791" clip-path="url(#clipPath2)" font-family="sans-serif" stroke="none" font-weight="bold" xml:space="preserve">Node</text>
    </g>
    <g fill="rgb(255,204,0)" text-rendering="geometricPrecision" shape-rendering="geometricPrecision" transform="matrix(1,0,0,1,-19,-154)" stroke="rgb(255,204,0)">
      <rect x="213" width="49.5" height="30" y="280" clip-path="url(#clipPath2)" stroke="none"/>
    </g>
    <g text-rendering="geometricPrecision" stroke-miterlimit="1.45" shape-rendering="geometricPrecision" transform="matrix(1,0,0,1,-19,-154)" stroke-linecap="butt">
      <rect fill="none" x="213" width="49.5" height="30" y="280" clip-path="url(#clipPath2)"/>
      <text x="222.9673" font-size="14px" y="292.0469" clip-path="url(#clipPath2)" font-family="sans-serif" stroke="none" font-weight="bold" xml:space="preserve">Port</text>
      <text x="214.6616" font-size="14px" y="308.5352" clip-path="url(#clipPath2)" font-family="sans-serif" stroke="none" font-weight="bold" xml:space="preserve">30000</text>
    </g>
    <g text-rendering="geometricPrecision" shape-rendering="geometricPrecision" transform="matrix(1.2163,0,0,0.9375,253.8158,15.4498)">
      <g clip-path="url(#clipPath3)">
        <svg xmlns:svg="http://www.w3.org/2000/svg" xmlns:sodipodi="http://sodipodi.sourceforge.net/DTD/sodipodi-0.dtd" xmlns:inkscape="http://www.inkscape.org/namespaces/inkscape" xmlns:dc="http://purl.org/dc/elements/1.1/" xmlns:cc="http://web.resource.org/cc/" xmlns:rdf="http://www.w3.org/1999/02/22-rdf-syntax-ns#" opacity="1" writing-mode="lr-tb" stop-color="rgb(0, 0, 0)" shape-rendering="auto" glyph-orientation-horizontal="0deg" color-profile="auto" lighting-color="rgb(255, 255, 255)" color="rgb(0, 0, 0)" font-weight="400" alignment-baseline="auto" font-style="normal" version="1.0" color-interpolation-filters="linearrgb" text-anchor="start" stroke-linecap="butt" color-interpolation="srgb" font-variant="normal" word-spacing="normal" fill-opacity="1" text-rendering="auto" clip-path="none" text-decoration="none" letter-spacing="normal" glyph-orientation-vertical="auto" display="inline" font-size-adjust="none" overflow="visible" fill="rgb(0, 0, 0)" font-stretch="normal" stroke-dasharray="none" inkscape:version="0.45.1" id="svg1.svg2" stroke-miterlimit="4" stop-opacity="1" color-rendering="auto" font-size="12" sodipodi:docbase="C:\Daten\alberts\projects\yfx" pointer-events="visiblepainted" mask="none" direction="ltr" baseline-shift="baseline" sodipodi:docname="uml_actor.svg" enable-background="accumulate" fill-rule="nonzero" image-rendering="auto" stroke-dashoffset="0" inkscape:output_extension="org.inkscape.output.svg.inkscape" marker-end="none" width="41" clip="auto" cursor="auto" stroke="none" filter="none" visibility="visible" kerning="auto" stroke-width="1" font-family="&quot;Arial&quot;,&quot;Helvetica&quot;,sans-serif" flood-opacity="1" clip-rule="nonzero" src="none" height="68.997391" unicode-bidi="normal" sodipodi:version="0.32" stroke-linejoin="miter" stroke-opacity="1" flood-color="rgb(0, 0, 0)" dominant-baseline="auto" marker-start="none" marker-mid="none">
            
          <defs id="svg1.defs4">
            <clipPath clipPathUnits="userSpaceOnUse" id="clipPath1">
              <path d="M0 0 L669 0 L669 458 L0 458 L0 0 Z"/>
            </clipPath>
            <clipPath clipPathUnits="userSpaceOnUse" id="clipPath2">
              <path d="M19 154 L688 154 L688 612 L19 612 L19 154 Z"/>
            </clipPath>
            <clipPath clipPathUnits="userSpaceOnUse" id="clipPath3">
              <path d="M-208.6779 -16.4804 L341.349 -16.4804 L341.349 472.0699 L-208.6779 472.0699 L-208.6779 -16.4804 Z"/>
            </clipPath>
          </defs>
            
  
          <metadata id="svg1.metadata7">
    
  </metadata>
            
          <g inkscape:groupmode="layer" id="svg1.layer1" transform="translate(-29.5,-42.959476)" inkscape:label="Ebene 1">
                
            <a id="svg1.a3142" transform="matrix(1.0873906,0,0,1,-4.4741999,0)">
                    
              <path transform="translate(11.586889,5.2908993)" style="fill:none;fill-rule:evenodd;stroke:#000000;stroke-width:1px;stroke-linecap:butt;stroke-linejoin:miter;stroke-opacity:1" sodipodi:cx="38.509369" sodipodi:cy="47.36993" sodipodi:rx="8.5197716" id="svg1.path2160" d="M 47.02914 47.36993 A 8.5197716 9.2013531 0 1 1  29.989597,47.36993 A 8.5197716 9.2013531 0 1 1  47.02914 47.36993 z" sodipodi:ry="9.2013531" sodipodi:type="arc"/>
                  
            </a>
                
            <path style="fill:none" sodipodi:cx="43.962021" sodipodi:cy="48.392303" d="M 47.71072 48.392303 A 3.7486994 0 0 1 1  40.213321,48.392303 A 3.7486994 0 0 1 1  47.71072 48.392303 z" id="svg1.path3134" sodipodi:rx="3.7486994" sodipodi:ry="0" sodipodi:type="arc"/>
                
            <path style="fill:none;fill-rule:evenodd;stroke:#000000;stroke-width:1.24319649px;stroke-linecap:butt;stroke-linejoin:miter;stroke-opacity:1" d="M 50,61.33709 C 50,91.363211 50,92.247838 50,92.247838" id="svg1.path3136"/>
                
            <path style="fill:none;fill-rule:evenodd;stroke:#000000;stroke-width:1px;stroke-linecap:butt;stroke-linejoin:miter;stroke-opacity:1" d="M 69.760668,72.362183 C 69.760668,72.362183 69.760668,72.362183 50.239332,72.362183 C 30.239332,72.362183 30.239332,72.362183 30.239332,72.362183 L 30.239332,72.362183" id="svg1.path3138"/>
                
            <path style="fill:none;fill-rule:evenodd;stroke:#000000;stroke-width:1px;stroke-linecap:butt;stroke-linejoin:miter;stroke-opacity:1" d="M 30,111.45687 C 30,111.45687 30,111.45687 50,92.013532 C 70,111.45687 70,111.45687 70,111.45687" id="svg1.path3140"/>
              
          </g>
          
        </svg>
      </g>
    </g>
    <g fill="white" text-rendering="geometricPrecision" shape-rendering="geometricPrecision" transform="matrix(1,0,0,1,-19,-154)" stroke="white">
      <rect x="369" width="137" height="73" y="524" clip-path="url(#clipPath2)" stroke="none"/>
    </g>
    <g text-rendering="geometricPrecision" stroke-miterlimit="1.45" shape-rendering="geometricPrecision" transform="matrix(1,0,0,1,-19,-154)" stroke-linecap="butt">
      <rect fill="none" x="369" width="137" height="73" y="524" clip-path="url(#clipPath2)"/>
      <text x="418.9097" font-size="14px" y="565.791" clip-path="url(#clipPath2)" font-family="sans-serif" stroke="none" font-weight="bold" xml:space="preserve">Node</text>
    </g>
    <g fill="white" text-rendering="geometricPrecision" shape-rendering="geometricPrecision" transform="matrix(1,0,0,1,-19,-154)" stroke="white">
      <rect x="536" width="137" height="73" y="524" clip-path="url(#clipPath2)" stroke="none"/>
    </g>
    <g text-rendering="geometricPrecision" stroke-miterlimit="1.45" shape-rendering="geometricPrecision" transform="matrix(1,0,0,1,-19,-154)" stroke-linecap="butt">
      <rect fill="none" x="536" width="137" height="73" y="524" clip-path="url(#clipPath2)"/>
      <text x="585.9097" font-size="14px" y="565.791" clip-path="url(#clipPath2)" font-family="sans-serif" stroke="none" font-weight="bold" xml:space="preserve">Node</text>
    </g>
    <g fill="white" text-rendering="geometricPrecision" shape-rendering="geometricPrecision" transform="matrix(1,0,0,1,-19,-154)" stroke="white">
      <rect x="35" width="137" height="212" y="297" clip-path="url(#clipPath2)" stroke="none"/>
    </g>
    <g text-rendering="geometricPrecision" stroke-miterlimit="1.45" shape-rendering="geometricPrecision" transform="matrix(1,0,0,1,-19,-154)" stroke-linecap="butt">
      <rect fill="none" x="35" width="137" height="212" y="297" clip-path="url(#clipPath2)"/>
      <text x="62.416" font-size="14px" y="483.5586" clip-path="url(#clipPath2)" font-family="sans-serif" stroke="none" font-weight="bold" xml:space="preserve">Kubernetes</text>
      <text x="77.8071" font-size="14px" y="500.0469" clip-path="url(#clipPath2)" font-family="sans-serif" stroke="none" font-weight="bold" xml:space="preserve">Worker</text>
    </g>
    <g fill="white" text-rendering="geometricPrecision" shape-rendering="geometricPrecision" transform="matrix(1,0,0,1,-19,-154)" stroke="white">
      <rect x="35" width="137" height="73" y="524" clip-path="url(#clipPath2)" stroke="none"/>
    </g>
    <g text-rendering="geometricPrecision" stroke-miterlimit="1.45" shape-rendering="geometricPrecision" transform="matrix(1,0,0,1,-19,-154)" stroke-linecap="butt">
      <rect fill="none" x="35" width="137" height="73" y="524" clip-path="url(#clipPath2)"/>
      <text x="84.9097" font-size="14px" y="565.791" clip-path="url(#clipPath2)" font-family="sans-serif" stroke="none" font-weight="bold" xml:space="preserve">Node</text>
    </g>
    <g fill="rgb(255,204,0)" text-rendering="geometricPrecision" shape-rendering="geometricPrecision" transform="matrix(1,0,0,1,-19,-154)" stroke="rgb(255,204,0)">
      <ellipse rx="35.25" ry="24" clip-path="url(#clipPath2)" cx="83.25" cy="437" stroke="none"/>
    </g>
    <g text-rendering="geometricPrecision" stroke-miterlimit="1.45" shape-rendering="geometricPrecision" transform="matrix(1,0,0,1,-19,-154)" stroke-linecap="butt">
      <ellipse rx="35.25" fill="none" ry="24" clip-path="url(#clipPath2)" cx="83.25" cy="437"/>
      <text x="49.0874" font-size="14px" y="442.291" clip-path="url(#clipPath2)" font-family="sans-serif" stroke="none" font-weight="bold" xml:space="preserve">user-232</text>
      <text x="262.0811" xml:space="preserve" y="256.5352" clip-path="url(#clipPath2)" font-family="sans-serif" stroke="none">&lt;&lt;Requests&gt;&gt;</text>
    </g>
    <g fill="rgb(153,204,255)" text-rendering="geometricPrecision" shape-rendering="geometricPrecision" transform="matrix(1,0,0,1,-19,-154)" stroke="rgb(153,204,255)">
      <circle r="15" clip-path="url(#clipPath2)" cx="270.5" cy="446" stroke="none"/>
    </g>
    <g text-rendering="geometricPrecision" stroke-miterlimit="1.45" shape-rendering="geometricPrecision" transform="matrix(1,0,0,1,-19,-154)" stroke-linecap="butt">
      <circle fill="none" r="15" clip-path="url(#clipPath2)" cx="270.5" cy="446"/>
      <text x="266.0908" font-size="14px" y="451.291" clip-path="url(#clipPath2)" font-family="sans-serif" stroke="none" font-weight="bold" xml:space="preserve">B</text>
      <rect x="221" y="349" clip-path="url(#clipPath2)" fill="none" width="85.5" stroke-dasharray="12,4" height="37" stroke-width="2"/>
      <text x="243.9531" font-size="14px" y="372.791" clip-path="url(#clipPath2)" font-family="sans-serif" stroke="none" font-weight="bold" xml:space="preserve">users</text>
    </g>
    <g fill="rgb(255,204,0)" text-rendering="geometricPrecision" shape-rendering="geometricPrecision" transform="matrix(1,0,0,1,-19,-154)" stroke="rgb(255,204,0)">
      <rect x="561.5" width="49.5" height="30" y="280" clip-path="url(#clipPath2)" stroke="none"/>
    </g>
    <g text-rendering="geometricPrecision" stroke-miterlimit="1.45" shape-rendering="geometricPrecision" transform="matrix(1,0,0,1,-19,-154)" stroke-linecap="butt">
      <rect fill="none" x="561.5" width="49.5" height="30" y="280" clip-path="url(#clipPath2)"/>
      <text x="571.4673" font-size="14px" y="292.0469" clip-path="url(#clipPath2)" font-family="sans-serif" stroke="none" font-weight="bold" xml:space="preserve">Port</text>
      <text x="563.1616" font-size="14px" y="308.5352" clip-path="url(#clipPath2)" font-family="sans-serif" stroke="none" font-weight="bold" xml:space="preserve">30000</text>
    </g>
    <g fill="rgb(255,204,0)" text-rendering="geometricPrecision" shape-rendering="geometricPrecision" transform="matrix(1,0,0,1,-19,-154)" stroke="rgb(255,204,0)">
      <rect x="48" width="49.5" height="30" y="280" clip-path="url(#clipPath2)" stroke="none"/>
    </g>
    <g text-rendering="geometricPrecision" stroke-miterlimit="1.45" shape-rendering="geometricPrecision" transform="matrix(1,0,0,1,-19,-154)" stroke-linecap="butt">
      <rect fill="none" x="48" width="49.5" height="30" y="280" clip-path="url(#clipPath2)"/>
      <text x="57.9673" font-size="14px" y="292.0469" clip-path="url(#clipPath2)" font-family="sans-serif" stroke="none" font-weight="bold" xml:space="preserve">Port</text>
      <text x="49.6616" font-size="14px" y="308.5352" clip-path="url(#clipPath2)" font-family="sans-serif" stroke="none" font-weight="bold" xml:space="preserve">30000</text>
    </g>
    <g fill="rgb(255,204,0)" text-rendering="geometricPrecision" shape-rendering="geometricPrecision" transform="matrix(1,0,0,1,-19,-154)" stroke="rgb(255,204,0)">
      <rect x="379" width="49.5" height="30" y="280" clip-path="url(#clipPath2)" stroke="none"/>
    </g>
    <g text-rendering="geometricPrecision" stroke-miterlimit="1.45" shape-rendering="geometricPrecision" transform="matrix(1,0,0,1,-19,-154)" stroke-linecap="butt">
      <rect fill="none" x="379" width="49.5" height="30" y="280" clip-path="url(#clipPath2)"/>
      <text x="388.9673" font-size="14px" y="292.0469" clip-path="url(#clipPath2)" font-family="sans-serif" stroke="none" font-weight="bold" xml:space="preserve">Port</text>
      <text x="380.6616" font-size="14px" y="308.5352" clip-path="url(#clipPath2)" font-family="sans-serif" stroke="none" font-weight="bold" xml:space="preserve">30000</text>
    </g>
    <g fill="rgb(255,204,0)" text-rendering="geometricPrecision" shape-rendering="geometricPrecision" transform="matrix(1,0,0,1,-19,-154)" stroke="rgb(255,204,0)">
      <rect x="438" width="186" height="51" y="183" clip-path="url(#clipPath2)" stroke="none"/>
    </g>
    <g text-rendering="geometricPrecision" stroke-miterlimit="1.45" shape-rendering="geometricPrecision" transform="matrix(1,0,0,1,-19,-154)" stroke-linecap="butt">
      <rect fill="none" x="438" width="186" height="51" y="183" clip-path="url(#clipPath2)"/>
      <text x="490.7197" xml:space="preserve" y="213.0352" clip-path="url(#clipPath2)" font-family="sans-serif" stroke="none">Load Balancer</text>
    </g>
    <g fill="rgb(255,204,0)" text-rendering="geometricPrecision" shape-rendering="geometricPrecision" transform="matrix(1,0,0,1,-19,-154)" stroke="rgb(255,204,0)">
      <ellipse rx="35.25" ry="24" clip-path="url(#clipPath2)" cx="437.5" cy="424" stroke="none"/>
    </g>
    <g text-rendering="geometricPrecision" stroke-miterlimit="1.45" shape-rendering="geometricPrecision" transform="matrix(1,0,0,1,-19,-154)" stroke-linecap="butt">
      <ellipse rx="35.25" fill="none" ry="24" clip-path="url(#clipPath2)" cx="437.5" cy="424"/>
      <text x="403.9355" font-size="14px" y="429.291" clip-path="url(#clipPath2)" font-family="sans-serif" stroke="none" font-weight="bold" xml:space="preserve">user-12F</text>
    </g>
    <g fill="rgb(255,204,0)" text-rendering="geometricPrecision" shape-rendering="geometricPrecision" transform="matrix(1,0,0,1,-19,-154)" stroke="rgb(255,204,0)">
      <ellipse rx="35.25" ry="24" clip-path="url(#clipPath2)" cx="586.5" cy="392" stroke="none"/>
    </g>
    <g text-rendering="geometricPrecision" stroke-miterlimit="1.45" shape-rendering="geometricPrecision" transform="matrix(1,0,0,1,-19,-154)" stroke-linecap="butt">
      <ellipse rx="35.25" fill="none" ry="24" clip-path="url(#clipPath2)" cx="586.5" cy="392"/>
      <text x="552.9355" font-size="14px" y="397.291" clip-path="url(#clipPath2)" font-family="sans-serif" stroke="none" font-weight="bold" xml:space="preserve">user-32F</text>
      <path fill="none" d="M261.45 224.9 L245.3836 272.4214" clip-path="url(#clipPath2)"/>
      <path d="M242.8213 280 L251.4013 270.2335 L245.7038 271.4741 L241.9281 267.0307 Z" clip-path="url(#clipPath2)" stroke="none"/>
      <path fill="none" d="M243.1293 310 L254.415 341.4696" clip-path="url(#clipPath2)"/>
      <path d="M257.1155 349 L257.7712 336.0165 L254.0774 340.5283 L248.3582 339.3922 Z" clip-path="url(#clipPath2)" stroke="none"/>
      <path fill="none" d="M269.2149 431.0551 L266.0261 393.9706" clip-path="url(#clipPath2)"/>
      <path d="M265.3408 386 L261.3872 398.3842 L266.1118 394.9669 L271.3504 397.5275 Z" clip-path="url(#clipPath2)" stroke="none"/>
      <path fill="none" d="M221 383.9605 L121.3989 422.3111" clip-path="url(#clipPath2)"/>
      <path d="M113.9332 425.1857 L126.9284 425.5398 L122.3321 421.9518 L123.3352 416.2077 Z" clip-path="url(#clipPath2)" stroke="none"/>
      <path fill="none" d="M493.487 234 L432.4326 275.5026" clip-path="url(#clipPath2)"/>
      <path d="M425.8165 280 L438.5516 277.389 L433.2596 274.9404 L432.9298 269.1188 Z" clip-path="url(#clipPath2)" stroke="none"/>
      <path fill="none" d="M547.2876 234 L572.3627 273.2579" clip-path="url(#clipPath2)"/>
      <path d="M576.6691 280 L574.4233 267.1954 L571.8245 272.4152 L565.9958 272.5784 Z" clip-path="url(#clipPath2)" stroke="none"/>
      <path fill="none" d="M306.5 381.4014 L398.0838 411.1826" clip-path="url(#clipPath2)"/>
      <path d="M405.6917 413.6566 L395.8261 405.1908 L397.1329 410.8734 L392.7337 414.7006 Z" clip-path="url(#clipPath2)" stroke="none"/>
      <path fill="none" d="M306.5245 371.343 L544.001 395.8833" clip-path="url(#clipPath2)"/>
      <path d="M551.9587 396.7056 L540.5362 390.4986 L543.0063 395.7805 L539.5083 400.4457 Z" clip-path="url(#clipPath2)" stroke="none"/>
    </g>
  </g>
</svg>
