<?xml version="1.0" encoding="UTF-8"?><svg xmlns="http://www.w3.org/2000/svg" xmlns:xlink="http://www.w3.org/1999/xlink" fill-opacity="1" color-rendering="auto" color-interpolation="auto" text-rendering="auto" stroke="black" stroke-linecap="square" width="640" stroke-miterlimit="10" shape-rendering="auto" stroke-opacity="1" fill="black" stroke-dasharray="none" font-weight="normal" stroke-width="1" height="400" font-family="'Dialog'" font-style="normal" stroke-linejoin="miter" font-size="12px" stroke-dashoffset="0" image-rendering="auto">
  <!--Generated by ySVG 2.5-->
  <defs id="genericDefs"/>
  <g>
    <defs id="defs1">
      <clipPath clipPathUnits="userSpaceOnUse" id="clipPath1">
        <path d="M0 0 L640 0 L640 400 L0 400 L0 0 Z"/>
      </clipPath>
      <clipPath clipPathUnits="userSpaceOnUse" id="clipPath2">
        <path d="M-11 338 L629 338 L629 738 L-11 738 L-11 338 Z"/>
      </clipPath>
    </defs>
    <g fill="white" text-rendering="geometricPrecision" shape-rendering="geometricPrecision" transform="translate(11,-338)" stroke="white">
      <rect x="-11" width="640" height="400" y="338" clip-path="url(#clipPath2)" stroke="none"/>
    </g>
    <g fill="rgb(153,204,255)" text-rendering="geometricPrecision" shape-rendering="geometricPrecision" transform="matrix(1,0,0,1,11,-338)" stroke="rgb(153,204,255)">
      <rect x="90" width="175" height="52" y="384" clip-path="url(#clipPath2)" stroke="none"/>
    </g>
    <g text-rendering="geometricPrecision" stroke-miterlimit="1.45" shape-rendering="geometricPrecision" transform="matrix(1,0,0,1,11,-338)" stroke-linecap="butt">
      <rect fill="none" x="90" width="175" height="52" y="384" clip-path="url(#clipPath2)"/>
      <text x="148.3125" font-size="16px" y="406.625" clip-path="url(#clipPath2)" font-family="sans-serif" stroke="none" font-weight="bold" xml:space="preserve">Service</text>
      <text x="131.1172" font-size="16px" y="425.4688" clip-path="url(#clipPath2)" font-family="sans-serif" stroke="none" font-weight="bold" xml:space="preserve">&lt;External&gt;</text>
    </g>
    <g fill="rgb(153,204,255)" text-rendering="geometricPrecision" shape-rendering="geometricPrecision" transform="matrix(1,0,0,1,11,-338)" stroke="rgb(153,204,255)">
      <rect x="90" width="175" height="133" y="495" clip-path="url(#clipPath2)" stroke="none"/>
    </g>
    <g text-rendering="geometricPrecision" stroke-miterlimit="1.45" shape-rendering="geometricPrecision" transform="matrix(1,0,0,1,11,-338)" stroke-linecap="butt">
      <rect fill="none" x="90" width="175" height="133" y="495" clip-path="url(#clipPath2)"/>
      <text x="150.832" font-size="16px" y="548.7031" clip-path="url(#clipPath2)" font-family="sans-serif" stroke="none" font-weight="bold" xml:space="preserve">Rabbit</text>
      <text x="128.4414" font-size="16px" y="567.5469" clip-path="url(#clipPath2)" font-family="sans-serif" stroke="none" font-weight="bold" xml:space="preserve">Prometheus</text>
      <text x="142.3555" font-size="16px" y="586.3906" clip-path="url(#clipPath2)" font-family="sans-serif" stroke="none" font-weight="bold" xml:space="preserve">Exporter</text>
    </g>
    <g fill="rgb(153,204,255)" text-rendering="geometricPrecision" shape-rendering="geometricPrecision" transform="matrix(1,0,0,1,11,-338)" stroke="rgb(153,204,255)">
      <rect x="439" width="175" height="113" y="353.5" clip-path="url(#clipPath2)" stroke="none"/>
    </g>
    <g text-rendering="geometricPrecision" stroke-miterlimit="1.45" shape-rendering="geometricPrecision" transform="matrix(1,0,0,1,11,-338)" stroke-linecap="butt">
      <rect fill="none" x="439" width="175" height="113" y="353.5" clip-path="url(#clipPath2)"/>
      <text x="485.9805" font-size="16px" y="416.0469" clip-path="url(#clipPath2)" font-family="sans-serif" stroke="none" font-weight="bold" xml:space="preserve">RabbitMQ</text>
    </g>
    <g fill="rgb(153,204,255)" text-rendering="geometricPrecision" shape-rendering="geometricPrecision" transform="matrix(1,0,0,1,11,-338)" stroke="rgb(153,204,255)">
      <rect x="90" width="175" height="36" y="687" clip-path="url(#clipPath2)" stroke="none"/>
    </g>
    <g text-rendering="geometricPrecision" stroke-miterlimit="1.45" shape-rendering="geometricPrecision" transform="matrix(1,0,0,1,11,-338)" stroke-linecap="butt">
      <rect fill="none" x="90" width="175" height="36" y="687" clip-path="url(#clipPath2)"/>
      <text x="148.75" font-size="16px" y="711.0469" clip-path="url(#clipPath2)" font-family="sans-serif" stroke="none" font-weight="bold" xml:space="preserve">Google</text>
    </g>
    <g fill="rgb(153,204,255)" text-rendering="geometricPrecision" shape-rendering="geometricPrecision" transform="matrix(1,0,0,1,11,-338)" stroke="rgb(153,204,255)">
      <rect x="439" width="175" height="36" y="687" clip-path="url(#clipPath2)" stroke="none"/>
    </g>
    <g text-rendering="geometricPrecision" stroke-miterlimit="1.45" shape-rendering="geometricPrecision" transform="matrix(1,0,0,1,11,-338)" stroke-linecap="butt">
      <rect fill="none" x="439" width="175" height="36" y="687" clip-path="url(#clipPath2)"/>
      <text x="508.8086" font-size="16px" y="711.0469" clip-path="url(#clipPath2)" font-family="sans-serif" stroke="none" font-weight="bold" xml:space="preserve">AWS</text>
    </g>
    <g fill="rgb(153,204,255)" text-rendering="geometricPrecision" shape-rendering="geometricPrecision" transform="matrix(1,0,0,1,11,-338)" stroke="rgb(153,204,255)">
      <rect x="90" width="175" height="36" y="639.5" clip-path="url(#clipPath2)" stroke="none"/>
    </g>
    <g text-rendering="geometricPrecision" stroke-miterlimit="1.45" shape-rendering="geometricPrecision" transform="matrix(1,0,0,1,11,-338)" stroke-linecap="butt">
      <rect fill="none" x="90" width="175" height="36" y="639.5" clip-path="url(#clipPath2)"/>
      <text x="130.5469" font-size="16px" y="663.5469" clip-path="url(#clipPath2)" font-family="sans-serif" stroke="none" font-weight="bold" xml:space="preserve">Kubernetes</text>
    </g>
    <g fill="rgb(153,204,255)" text-rendering="geometricPrecision" shape-rendering="geometricPrecision" transform="matrix(1,0,0,1,11,-338)" stroke="rgb(153,204,255)">
      <rect x="439" width="175" height="36" y="639.5" clip-path="url(#clipPath2)" stroke="none"/>
    </g>
    <g text-rendering="geometricPrecision" stroke-miterlimit="1.45" shape-rendering="geometricPrecision" transform="matrix(1,0,0,1,11,-338)" stroke-linecap="butt">
      <rect fill="none" x="439" width="175" height="36" y="639.5" clip-path="url(#clipPath2)"/>
      <text x="510.7188" font-size="16px" y="663.5469" clip-path="url(#clipPath2)" font-family="sans-serif" stroke="none" font-weight="bold" xml:space="preserve">EC2</text>
      <text x="185.7305" font-size="16px" y="471.5469" clip-path="url(#clipPath2)" font-family="sans-serif" stroke="none" font-weight="bold" xml:space="preserve">http://rabbitmq:15672</text>
      <text x="336.4414" font-size="16px" y="395.5469" clip-path="url(#clipPath2)" font-family="sans-serif" stroke="none" font-weight="bold" xml:space="preserve">IP</text>
    </g>
    <g fill="rgb(153,204,255)" text-rendering="geometricPrecision" shape-rendering="geometricPrecision" transform="matrix(1,0,0,1,11,-338)" stroke="rgb(153,204,255)">
      <ellipse rx="24.5" ry="23.5" clip-path="url(#clipPath2)" cx="29" cy="561.5" stroke="none"/>
    </g>
    <g text-rendering="geometricPrecision" stroke-miterlimit="1.45" shape-rendering="geometricPrecision" transform="matrix(1,0,0,1,11,-338)" stroke-linecap="butt">
      <ellipse rx="24.5" fill="none" ry="23.5" clip-path="url(#clipPath2)" cx="29" cy="561.5"/>
      <text x="7.8906" font-size="16px" y="567.5469" clip-path="url(#clipPath2)" font-family="sans-serif" stroke="none" font-weight="bold" xml:space="preserve">9090</text>
      <path fill="none" d="M177.5 495 L177.5 444" clip-path="url(#clipPath2)"/>
      <path d="M177.5 436 L172.5 448 L177.5 445 L182.5 448 Z" clip-path="url(#clipPath2)" stroke="none"/>
      <path fill="none" d="M265 410 L431 410" clip-path="url(#clipPath2)"/>
      <path d="M439 410 L427 405 L430 410 L427 415 Z" clip-path="url(#clipPath2)" stroke="none"/>
      <path fill="none" d="M53.5 561.5 L90 561.5" clip-path="url(#clipPath2)"/>
    </g>
  </g>
</svg>
